<?xml version="1.0" standalone="no"?>
<!DOCTYPE svg PUBLIC "-//W3C//DTD SVG 1.1//EN" "http://www.w3.org/Graphics/SVG/1.1/DTD/svg11.dtd" >
<svg xmlns="http://www.w3.org/2000/svg" xmlns:xlink="http://www.w3.org/1999/xlink" version="1.1">
<metadata></metadata>
<defs>
<font id="pf_din_text_comp_proregular" horiz-adv-x="778" >
<font-face units-per-em="2048" ascent="1536" descent="-512" />
<missing-glyph horiz-adv-x="399" />
<glyph unicode="&#xfb01;" horiz-adv-x="802" d="M23 885v125h102v209q0 68 22.5 120t62.5 86.5t94 53t116 18.5q182 0 278 -104l-96 -115q-31 35 -78 49t-94 14q-78 0 -109.5 -37.5t-31.5 -91.5v-202h420v-1010h-162v885h-258v-885h-164v885h-102z" />
<glyph unicode="&#xfb02;" horiz-adv-x="874" d="M23 885v125h102v207q0 135 79 214.5t214 79.5q35 0 105.5 -4t185.5 -32v-1209q0 -70 17 -101.5t79 -31.5h24v-147h-32q-66 0 -113 11t-78 38.5t-46 77t-15 125.5v1103q-41 10 -68.5 12.5t-50.5 2.5q-78 0 -107.5 -42t-29.5 -114v-190h157v-125h-157v-885h-164v885h-102z " />
<glyph horiz-adv-x="0" />
<glyph horiz-adv-x="682" />
<glyph unicode=" "  horiz-adv-x="399" />
<glyph unicode="&#x09;" horiz-adv-x="399" />
<glyph unicode="&#xa0;" horiz-adv-x="399" />
<glyph unicode="!" horiz-adv-x="466" d="M152 -2v164h163v-164h-163zM152 1425h163l-14 -1063h-135z" />
<glyph unicode="&#x22;" horiz-adv-x="512" d="M78 1030v395h123v-395h-123zM313 1030v395h123v-395h-123z" />
<glyph unicode="#" d="M14 461v106h146l55 307h-125v107h146l86 455h108l-86 -455h178l84 455h109l-86 -455h127v-107h-148l-55 -307h127v-106h-148l-86 -461h-108l86 461h-178l-84 -461h-109l86 461h-125zM266 567h178l58 307h-178z" />
<glyph unicode="$" d="M47 311l162 33q0 -72 28.5 -130t108.5 -71v527q-94 43 -151.5 85t-88 90t-40 101t-9.5 117q0 154 71 255t218 118v161h78v-161q84 -4 140.5 -35t90 -75t48 -97t14.5 -105l-160 -41q0 86 -30.5 137.5t-102.5 61.5v-471q98 -39 156.5 -81t88 -91t39 -110.5t9.5 -139.5 q0 -86 -15.5 -157.5t-50.5 -124t-91 -83t-136 -36.5v-181h-78v181q-156 10 -227.5 100t-71.5 223zM219 1065q0 -37 3 -66.5t15.5 -55t38 -48.5t70.5 -47v432q-41 -8 -65.5 -29.5t-38 -52.5t-18.5 -65.5t-5 -67.5zM424 143q47 6 73.5 29t40 55.5t16.5 73.5t3 86q0 55 -4 92 t-18.5 64.5t-41 48t-69.5 43.5v-492z" />
<glyph unicode="%" horiz-adv-x="1249" d="M66 735v522q0 43 16 75t44 53.5t63.5 33t74.5 11.5q78 0 137.5 -44.5t59.5 -128.5v-522q0 -84 -59.5 -128t-137.5 -44q-39 0 -74.5 11.5t-63.5 33t-44 53t-16 74.5zM193 741q0 -29 19 -47t52 -18q31 0 50.5 18.5t19.5 46.5v512q0 27 -19.5 45.5t-50.5 18.5 q-33 0 -52 -18.5t-19 -45.5v-512zM258 -35l643 1497h105l-644 -1497h-104zM788 164v522q0 43 16.5 75t44.5 53.5t63.5 32.5t74.5 11q78 0 137.5 -44t59.5 -128v-522q0 -84 -59.5 -128t-137.5 -44q-39 0 -74.5 11t-63.5 32.5t-44.5 53.5t-16.5 75zM915 170q0 -29 19.5 -47.5 t52.5 -18.5q31 0 50.5 18.5t19.5 47.5v512q0 27 -19.5 45t-50.5 18q-33 0 -52.5 -18t-19.5 -45v-512z" />
<glyph unicode="&#x26;" horiz-adv-x="944" d="M80 348q0 127 54 223.5t153 190.5q-16 25 -28.5 49.5t-22.5 42.5q-29 53 -52.5 130t-23.5 149q0 63 19.5 118.5t54 96.5t86 64.5t112.5 23.5q106 0 176 -36t107 -122l-146 -72q-33 84 -133 84q-33 0 -55.5 -14t-36.5 -38t-20.5 -52.5t-6.5 -55.5q0 -53 24 -118.5 t67 -147.5l264 -456q16 47 24.5 99t12.5 107h147q-4 -82 -24.5 -180t-61.5 -182l148 -252h-187l-67 115q-68 -80 -143 -103.5t-152 -23.5q-59 0 -111.5 25.5t-92.5 72.5t-62.5 113.5t-22.5 148.5zM236 356q0 -45 11 -85t33.5 -70.5t54.5 -48t73 -17.5q53 0 103 27.5t81 73.5 l-230 395q-59 -68 -92.5 -133.5t-33.5 -141.5z" />
<glyph unicode="'" horiz-adv-x="352" d="M117 1030v395h125v-395h-125z" />
<glyph unicode="(" horiz-adv-x="430" d="M72 623q0 131 21.5 248.5t58 223t86 198.5t104.5 175l78 -36q-96 -170 -149.5 -382t-53.5 -419q0 -223 54.5 -434t146.5 -377l-72 -45q-55 82 -105.5 176t-87 200.5t-59 224.5t-22.5 247z" />
<glyph unicode=")" horiz-adv-x="430" d="M72 1432l78 36q55 -82 104 -175t86 -198.5t58.5 -223t21.5 -248.5q0 -129 -22.5 -247t-59.5 -224.5t-87 -200.5t-106 -176l-71 45q92 166 146 377t54 434q0 207 -53 419t-149 382z" />
<glyph unicode="*" horiz-adv-x="718" d="M47 1153l41 117l211 -88l-18 241h122l-18 -241l209 88l43 -117l-225 -59l155 -189l-102 -69l-123 204l-125 -206l-100 71l153 189z" />
<glyph unicode="+" d="M18 541v123h312v335h121v-335h311v-123h-311v-336h-121v336h-312z" />
<glyph unicode="," horiz-adv-x="395" d="M100 -246l50 230h-44v198h179v-194l-95 -234h-90z" />
<glyph unicode="-" horiz-adv-x="708" d="M100 518v137h531v-137h-531z" />
<glyph unicode="." horiz-adv-x="395" d="M106 0v186h179v-186h-179z" />
<glyph unicode="/" horiz-adv-x="524" d="M12 -86l381 1571h123l-381 -1571h-123z" />
<glyph unicode="0" d="M100 260v899q0 68 23.5 120t63.5 87t92.5 53.5t109.5 18.5q127 0 208 -72t81 -207v-899q0 -68 -23.5 -119t-63.5 -86t-92.5 -52t-109.5 -17t-109.5 17t-92.5 52t-63.5 86.5t-23.5 118.5zM262 254q0 -53 36 -86t91 -33t91 33t36 86v911q0 53 -36 86t-91 33t-91 -32.5 t-36 -86.5v-911z" />
<glyph unicode="1" d="M205 1090v172l203 163h165v-1425h-161v1255z" />
<glyph unicode="2" d="M100 1071v8q0 82 16.5 147.5t52.5 112.5t92 73t134 26q80 0 135.5 -22.5t90 -63.5t50 -99.5t15.5 -130.5q0 -170 -78 -327l-319 -645h387v-150h-572v141l371 740q29 55 36 116.5t7 122.5q0 29 -4 58.5t-16.5 53t-38 38t-68.5 14.5q-70 -2 -99.5 -58.5t-29.5 -170.5v-13z " />
<glyph unicode="3" d="M96 315l162 23q-10 -92 19.5 -147.5t107.5 -55.5q53 0 91 34t38 118v215q0 86 -34 124t-111 38h-64v141h68q76 0 108.5 34.5t32.5 116.5v183q0 27 -5 53.5t-17.5 47t-35 32.5t-59.5 12q-72 0 -105.5 -54t-33.5 -145l-162 23q2 70 22.5 130t58.5 104t95.5 70t135.5 26 q76 0 127 -23.5t82.5 -63.5t45 -93.5t13.5 -110.5v-146q0 -41 -3 -78.5t-14.5 -70.5t-35 -60.5t-66.5 -50.5v-6q41 -18 64.5 -41.5t36 -55.5t15.5 -72t3 -89l-2 -184q0 -82 -24.5 -140.5t-64.5 -95.5t-92.5 -54t-111.5 -17q-84 0 -140.5 24.5t-90 67.5t-46 103.5t-8.5 133.5 z" />
<glyph unicode="4" d="M47 225v146l299 1054h160l-301 -1054h262v395h162v-395h100v-146h-100v-225h-162v225h-420z" />
<glyph unicode="5" d="M88 315l162 23q0 -45 4 -82t18.5 -63.5t41 -42t73.5 -15.5q53 0 88 34t39 118v368q0 121 -119 121q-47 0 -79.5 -21.5t-49.5 -58.5h-141v729h553v-145h-410v-430h11q31 31 75.5 46t91.5 15q121 0 173.5 -67.5t52.5 -165.5v-385q0 -82 -22.5 -140.5t-62.5 -95.5t-92.5 -54 t-111.5 -17q-84 0 -139.5 25.5t-89 69.5t-49 104.5t-17.5 129.5z" />
<glyph unicode="6" d="M100 260v238q0 92 12.5 153.5t30.5 108.5l265 665h163l-237 -624l6 -6q43 33 106 32q68 0 112 -21.5t70.5 -58t38 -86t11.5 -102.5v-299q0 -68 -23.5 -119t-63.5 -86t-92.5 -52t-109.5 -17t-109.5 17t-92.5 52t-63.5 86.5t-23.5 118.5zM262 248q0 -53 36 -83t91 -30 t91 30t36 83v319q0 53 -35 83t-90 30q-37 0 -61.5 -13.5t-40 -35t-21.5 -48t-6 -53.5v-282z" />
<glyph unicode="7" d="M94 1110v315h588v-133l-367 -1292h-155l358 1280h-282v-170h-142z" />
<glyph unicode="8" d="M100 260v262q0 78 30 134.5t81 91.5q-51 35 -81 90t-30 133v188q0 68 23.5 120t63.5 87t92.5 53.5t109.5 18.5t109.5 -18.5t92.5 -53.5t63.5 -87t23.5 -120v-188q0 -78 -31 -133.5t-80 -89.5q49 -35 80 -91.5t31 -134.5v-262q0 -68 -23.5 -119t-63.5 -86t-92.5 -52 t-109.5 -17t-109.5 17t-92.5 52t-63.5 86.5t-23.5 118.5zM262 248q0 -53 36 -83t91 -30t91 30t36 83v311q0 53 -36 88t-91 35t-91 -35t-36 -88v-311zM262 938q0 -53 36 -86t91 -33t91 33t36 86v233q0 53 -36 85t-91 32t-91 -31.5t-36 -85.5v-233z" />
<glyph unicode="9" d="M100 866v299q0 68 23.5 119t63.5 86t92.5 52.5t109.5 17.5q137 0 213 -70t76 -205v-237q0 -92 -12.5 -153.5t-30.5 -108.5l-264 -666h-164l237 625l-6 6q-43 -33 -106 -33q-68 0 -112 21.5t-70.5 58.5t-38 86t-11.5 102zM262 858q0 -53 35 -85t90 -32q37 0 61.5 14.5 t40 36t21.5 49t6 54.5v283q0 53 -36 82.5t-91 29.5t-91 -29.5t-36 -82.5v-320z" />
<glyph unicode=":" horiz-adv-x="395" d="M106 0v186h179v-186h-179zM106 614v187h179v-187h-179z" />
<glyph unicode=";" horiz-adv-x="395" d="M100 -246l50 230h-44v198h179v-194l-95 -234h-90zM106 614v187h179v-187h-179z" />
<glyph unicode="&#x3c;" d="M23 549v108l731 375v-135l-607 -295l607 -293v-135z" />
<glyph unicode="=" d="M18 385v129h744v-129h-744zM18 698v129h744v-129h-744z" />
<glyph unicode="&#x3e;" d="M25 174v135l606 293l-606 295v135l731 -375v-108z" />
<glyph unicode="?" horiz-adv-x="759" d="M72 1108q0 84 25.5 146.5t68.5 103.5t101.5 60.5t123.5 19.5q172 0 248 -90t76 -256q0 -53 -4 -91t-14.5 -71t-28 -67t-43.5 -79l-95 -161q-16 -27 -27 -55.5t-11 -63.5v-142h-160v170q0 41 12 80t35 74q55 88 88 141.5t51.5 92t24.5 73.5t6 88q0 41 -6 78t-23.5 64.5 t-48.5 44t-80 16.5q-66 0 -110.5 -45t-44.5 -149zM330 0v164h159v-164h-159z" />
<glyph unicode="@" horiz-adv-x="1540" d="M123 686q0 168 44 307.5t129 238.5t210 153.5t287 54.5q154 0 270.5 -49.5t195 -136.5t118.5 -207.5t40 -262.5q0 -141 -26.5 -236t-72.5 -153.5t-107.5 -84t-133.5 -25.5q-16 0 -42.5 7t-53.5 22.5t-48.5 40t-29.5 57.5l-2 -2q-25 -45 -84 -76t-127 -31q-53 0 -88 20.5 t-56.5 53.5t-30.5 75t-9 85q0 45 11 91t38 83t70 60.5t106 23.5h131v106q0 47 -25.5 75t-80.5 28q-35 0 -68 -19.5t-39 -62.5l-127 32q20 80 87 125t153 45q100 0 166.5 -49t66.5 -172v-373q0 -59 27 -89.5t63 -30.5q43 0 79 14t61.5 56t40 115t14.5 189q0 125 -36 224.5 t-99.5 168t-152.5 104.5t-193 36q-141 0 -244.5 -49t-169.5 -134t-97.5 -201t-31.5 -247q0 -145 34 -263t102.5 -203t171 -131t239.5 -46q100 0 178 17.5t168 70.5l51 -117q-88 -41 -185 -67.5t-202 -26.5q-162 0 -290 49t-217 145.5t-136 240t-47 331.5zM635 543 q0 -49 27.5 -82t87.5 -33q55 0 83.5 36t28.5 93v125h-96q-51 0 -91 -29.5t-40 -109.5z" />
<glyph unicode="A" horiz-adv-x="808" d="M27 0l303 1425h151l307 -1425h-159l-66 317h-317l-64 -317h-155zM272 469h263l-70 338l-57 328h-9l-59 -332z" />
<glyph unicode="B" horiz-adv-x="847" d="M109 0v1425h301q184 0 259.5 -98t75.5 -278q0 -113 -32.5 -179.5t-116.5 -113.5v-8q94 -29 128 -116t34 -212q0 -221 -91.5 -320.5t-283.5 -99.5h-274zM270 145h127q68 0 108 24t61.5 63.5t28.5 92t7 111.5q0 117 -44 180.5t-169 63.5h-119v-535zM270 821h109 q113 0 162 59.5t49 170.5t-48 169t-161 58h-111v-457z" />
<glyph unicode="C" horiz-adv-x="786" d="M96 330v704q0 76 13.5 148.5t48.5 129t98.5 91.5t161.5 35q166 0 240.5 -90.5t74.5 -235.5l-162 -29v10q1 87 -33 139q-36 56 -122 56q-49 0 -80 -22.5t-48.5 -56t-23.5 -74.5t-6 -78v-719q0 -31 6 -66.5t23.5 -65.5t47.5 -50.5t79 -20.5q80 0 117.5 49t39.5 156l166 -29 q-4 -154 -83 -239.5t-236 -85.5q-162 0 -242 90t-80 254z" />
<glyph unicode="D" horiz-adv-x="866" d="M109 0v1425h331q127 0 201 -44t102 -148q23 -86 23 -213v-305v-298t-27 -206q-39 -121 -124 -166t-193 -45h-313zM270 147h146q100 0 143 55.5t43 157.5v709q0 96 -41 151.5t-145 55.5h-146v-1129z" />
<glyph unicode="E" horiz-adv-x="749" d="M109 0v1425h610v-149h-449v-477h389v-150h-389v-502h449v-147h-610z" />
<glyph unicode="F" horiz-adv-x="749" d="M109 0v1425h610v-149h-449v-477h389v-150h-389v-649h-161z" />
<glyph unicode="G" horiz-adv-x="847" d="M102 330v704q0 76 13.5 148.5t48.5 129t98.5 91.5t161.5 35q166 0 238.5 -85t76.5 -231l-161 -39v10q0 87 -34 139q-36 56 -122 56q-49 0 -80 -22.5t-48.5 -56t-23.5 -74.5t-6 -78v-719q0 -31 6 -66.5t23.5 -65.5t47.5 -50.5t79 -20.5h2q78 0 123 41t45 113v340h-166v141 h328v-461q0 -80 -26 -140t-70 -101t-104 -61.5t-128 -20.5q-162 0 -242 90t-80 254z" />
<glyph unicode="H" horiz-adv-x="874" d="M109 0v1425h161v-626h332v626h162v-1425h-162v657h-332v-657h-161z" />
<glyph unicode="I" horiz-adv-x="393" d="M115 0v1425h164v-1425h-164z" />
<glyph unicode="J" horiz-adv-x="743" d="M10 121l119 96q23 -33 65 -58.5t85 -25.5q90 0 128.5 58.5t38.5 150.5v1083h162v-1060q0 -186 -81 -282.5t-246 -96.5q-88 0 -158 32.5t-113 102.5z" />
<glyph unicode="K" horiz-adv-x="847" d="M109 0v1425h161v-710h4l344 710h162l-276 -563l327 -862h-163l-258 684l-140 -270v-414h-161z" />
<glyph unicode="L" horiz-adv-x="696" d="M109 0v1425h161v-1278h416v-147h-577z" />
<glyph unicode="M" horiz-adv-x="1155" d="M109 0v1425h163l170 -444l131 -348h7l135 358l166 434h166v-1425h-162v987h-11l-112 -295l-148 -346h-75l-148 346l-112 295h-9v-987h-161z" />
<glyph unicode="N" horiz-adv-x="921" d="M102 0v1425h154l295 -723l98 -260l8 2v981h162v-1425h-151l-295 717l-103 258h-6v-975h-162z" />
<glyph unicode="O" horiz-adv-x="847" d="M96 336v702q0 76 13.5 147.5t49.5 128t99.5 90.5t165.5 34q106 0 170.5 -30t99.5 -83t46.5 -125t11.5 -158v-659q0 -190 -75 -293.5t-255 -103.5q-176 0 -251 96t-75 254zM258 334q0 -31 6 -66t24.5 -65.5t50.5 -50t83 -19.5t84 20.5t51 52.5t25.5 72.5t7.5 83.5v707 q0 37 -5 76t-21.5 70.5t-50.5 53t-89 21.5q-61 0 -94 -29.5t-49.5 -70.5t-19.5 -87t-3 -77v-692z" />
<glyph unicode="P" horiz-adv-x="808" d="M109 0v1425h290q109 0 178.5 -28.5t110.5 -82.5t56.5 -133t15.5 -180q0 -90 -14.5 -167.5t-55.5 -136t-113.5 -91.5t-189.5 -33h-117v-573h-161zM270 725h111q74 0 118 22.5t67.5 59.5t29.5 86t6 104q0 57 -7 108.5t-29.5 89.5t-65.5 59.5t-115 21.5h-115v-551z" />
<glyph unicode="Q" horiz-adv-x="847" d="M96 336v702q0 76 13.5 147.5t49.5 128t99.5 90.5t165.5 34q106 0 170.5 -30t99.5 -83t46.5 -125t11.5 -158v-659q0 -141 -39 -231l114 -93l-79 -98l-111 88q-80 -63 -213 -63q-176 0 -252 96t-76 254zM258 334q0 -31 6 -66t24.5 -65.5t50.5 -50t83 -19.5q53 0 86 21 l-121 100l80 96l111 -90q12 45 12 102v707q0 37 -5 76t-21.5 70.5t-50.5 53t-89 21.5q-61 0 -94 -29.5t-49.5 -70.5t-19.5 -87t-3 -77v-692z" />
<glyph unicode="R" horiz-adv-x="847" d="M109 0v1425h313q174 0 256 -100t82 -305q0 -123 -37 -217t-148 -146l218 -657h-166l-203 625h-154v-625h-161zM270 774h138q55 0 92 17.5t58.5 50t29.5 78t8 100.5q0 57 -8 104t-32 81t-62.5 52.5t-100.5 18.5h-123v-502z" />
<glyph unicode="S" horiz-adv-x="806" d="M68 311l161 33q0 -41 8.5 -77t28 -64.5t53 -45t82.5 -16.5q61 0 97.5 19.5t53.5 53.5t21.5 79t4.5 94q0 63 -6.5 103t-27 70t-58 52.5t-101.5 49.5q-100 43 -160.5 87t-93.5 92t-43 102t-10 120q0 82 20.5 150.5t62.5 118.5t105.5 78t147.5 28q92 0 154.5 -29t100.5 -75 t53 -101t15 -109l-159 -41q0 96 -39 148.5t-133 52.5q-53 0 -85 -20.5t-50.5 -52t-24.5 -70.5t-6 -76q0 -45 5 -79t27.5 -63.5t66.5 -58t124 -59.5q92 -37 146.5 -77t83 -89t36.5 -110.5t8 -139.5q0 -92 -17.5 -165.5t-57 -127t-103 -82t-158.5 -28.5q-86 0 -149.5 24.5 t-104.5 68.5t-60 103.5t-19 128.5z" />
<glyph unicode="T" horiz-adv-x="655" d="M4 1278v147h647v-147h-241v-1278h-164v1278h-242z" />
<glyph unicode="U" horiz-adv-x="860" d="M102 336v1087h162v-1089q0 -31 6 -66t24.5 -65.5t50.5 -50t83 -19.5t84 20.5t51.5 52.5t25.5 72.5t7 83.5v1061h162v-1040q0 -190 -74 -293.5t-254 -103.5q-176 0 -252 96t-76 254z" />
<glyph unicode="V" horiz-adv-x="808" d="M47 1425h166l106 -602l80 -495h7l81 499l109 598h166l-273 -1427h-176z" />
<glyph unicode="W" horiz-adv-x="1189" d="M47 1425h168l76 -608l45 -409h6l66 405l112 612h150l108 -604l70 -413h6l45 417l72 600h170l-207 -1427h-152l-125 674l-61 368h-6l-64 -376l-123 -666h-149z" />
<glyph unicode="X" horiz-adv-x="772" d="M18 -2l285 750l-262 677h170l174 -501l176 501h170l-268 -677l291 -750h-170l-199 565l-197 -565h-170z" />
<glyph unicode="Y" horiz-adv-x="770" d="M27 1425h170l104 -333l80 -256h8l184 589h170l-278 -823v-604h-160v604z" />
<glyph unicode="Z" horiz-adv-x="657" d="M41 0v147l416 1131h-396v147h557v-147l-411 -1131h409v-147h-575z" />
<glyph unicode="[" horiz-adv-x="430" d="M129 -207v1634h274v-100h-135v-1433h135v-101h-274z" />
<glyph unicode="\" horiz-adv-x="430" d="M23 1438h122l256 -1452h-122z" />
<glyph unicode="]" horiz-adv-x="430" d="M29 -106h135v1433h-135v100h272v-1636h-272v103z" />
<glyph unicode="^" d="M25 688l313 731h108l314 -731h-131l-238 582l-235 -582h-131z" />
<glyph unicode="_" horiz-adv-x="1024" d="M0 -143h1024v-125h-1024v125z" />
<glyph unicode="`" horiz-adv-x="731" d="M143 1466l146 52l139 -344l-88 -35z" />
<glyph unicode="a" horiz-adv-x="739" d="M55 283q0 57 12.5 114.5t43 104.5t84 76.5t137.5 29.5h160v135q0 59 -28 94t-106 35q-41 0 -79.5 -24.5t-49.5 -79.5l-153 43q23 100 98.5 157.5t192.5 57.5q137 0 212.5 -62.5t75.5 -218.5v-745h-163v88h-3q-41 -55 -93 -77.5t-117 -22.5q-63 0 -106.5 25.5t-69 67.5 t-37 94t-11.5 108zM213 293q0 -72 30.5 -110t96.5 -38q76 0 114 43t38 119v160h-119q-63 0 -111.5 -38t-48.5 -136z" />
<glyph unicode="b" horiz-adv-x="753" d="M82 0v1487h162v-572h4q31 55 90 81t106 26q84 0 132.5 -32t73 -87t31.5 -130t7 -161q0 -88 -1 -183t-11 -193q-10 -84 -38 -133.5t-64.5 -75t-74.5 -32.5t-65 -7q-80 0 -116.5 23.5t-69.5 68.5l-4 -2v-78h-162zM242 305q0 -70 34.5 -115t102.5 -45q51 0 79.5 19.5 t44 62.5t19.5 109.5t4 161.5q0 98 -3 166.5t-16 113.5t-43 65.5t-85 20.5q-57 0 -97 -43t-40 -102v-414z" />
<glyph unicode="c" horiz-adv-x="694" d="M66 496q0 51 2 105t5 103.5t9 89.5t16 64q29 78 94.5 123t180.5 45q152 0 216 -81t64 -218l-168 -22q0 92 -31.5 133t-86.5 41q-41 0 -71 -18.5t-48 -65.5q-12 -31 -16.5 -121t-6.5 -213q0 -68 2 -132.5t13 -99.5q14 -45 43.5 -70.5t83.5 -25.5q63 0 90.5 45t27.5 123 l166 -29q-4 -139 -74.5 -212.5t-222.5 -73.5q-63 0 -109 16t-79 43t-52.5 62.5t-29.5 72.5q-6 25 -10 62t-5 81t-2 89t-1 84z" />
<glyph unicode="d" horiz-adv-x="755" d="M61 492q0 111 5.5 208t31 168.5t78.5 113.5t150 42q59 0 102 -21.5t72 -62.5h4v547h162v-1487h-162v78l-4 2q-33 -45 -70 -68.5t-117 -23.5q-29 0 -66.5 7t-73.5 32.5t-65.5 75t-37.5 133.5q-6 61 -7.5 128.5t-1.5 127.5zM225 498q0 -94 3 -161t17.5 -110t43.5 -62.5 t80 -19.5q68 0 102.5 45.5t34.5 114.5v402q0 72 -33 114.5t-104 42.5q-45 0 -73 -17.5t-43 -60.5t-21.5 -113.5t-6.5 -174.5z" />
<glyph unicode="e" horiz-adv-x="731" d="M63 496q0 51 1.5 103t5.5 99t10 87t16 67q29 80 95.5 127t181.5 47q152 0 219 -84t67 -231v-250h-434q0 -68 3 -133.5t14 -100.5q29 -92 127 -92q59 0 88.5 40t34.5 112l165 -31q-8 -131 -80.5 -200.5t-220.5 -69.5q-66 0 -112.5 17t-79.5 45t-52.5 62.5t-27.5 69.5 q-6 25 -10 62t-6 81t-3.5 89t-1.5 84zM226 592h270v86q0 39 -5.5 74.5t-19.5 62.5t-39.5 42t-66.5 15q-37 0 -68 -17t-49 -64q-10 -29 -15 -78t-7 -121z" />
<glyph unicode="f" horiz-adv-x="503" d="M23 874v136h102v247q0 115 61.5 172.5t165.5 57.5h94v-152h-65q-47 0 -69.5 -27.5t-22.5 -70.5v-227h157v-136h-157v-874h-164v874h-102z" />
<glyph unicode="g" horiz-adv-x="757" d="M63 424v171t11 181q8 84 37.5 133t66.5 75t75 33t66 7q80 0 117 -23.5t70 -68.5l4 2v78h162v-1088q0 -61 -12.5 -120.5t-45 -106.5t-91 -76t-152.5 -29q-135 0 -207 67t-76 187l162 31q2 -61 29.5 -98t99.5 -37q35 0 60.5 14.5t41 38t22.5 52t7 59.5v190h-4 q-31 -55 -90.5 -80.5t-106.5 -25.5q-84 0 -133 35.5t-73.5 96t-32 138.5t-7.5 164zM227 514q0 -98 3 -166.5t16.5 -114t43 -66t85.5 -20.5q57 0 97 43t40 103v414q0 70 -34.5 114.5t-102.5 44.5q-51 0 -80 -19.5t-44 -62.5t-19.5 -109.5t-4.5 -160.5z" />
<glyph unicode="h" horiz-adv-x="755" d="M78 0v1487h162v-576h6q72 111 207 111q113 0 169 -72.5t56 -189.5v-760h-164v717q0 66 -35 103.5t-102 37.5q-66 0 -102.5 -39t-36.5 -110v-709h-160z" />
<glyph unicode="i" horiz-adv-x="348" d="M90 0v1012h164v-1012h-164zM90 1262v163h164v-163h-164z" />
<glyph unicode="j" horiz-adv-x="360" d="M-37 -254h29q70 0 88 30.5t18 114.5v1121h164v-1153q0 -53 -11 -101.5t-38 -85.5t-73 -58.5t-115 -21.5h-62v154zM98 1264v163h164v-163h-164z" />
<glyph unicode="k" horiz-adv-x="765" d="M86 0v1487h162v-961h4l283 486h180l-234 -391l277 -621h-174l-207 479l-129 -233v-246h-162z" />
<glyph unicode="l" horiz-adv-x="430" d="M100 238v1249h164v-1221q0 -70 17.5 -101.5t78.5 -31.5h25v-147h-33q-66 0 -112.5 11t-77.5 38.5t-46.5 77t-15.5 125.5z" />
<glyph unicode="m" horiz-adv-x="1200" d="M98 0v1012h162v-101h6q35 53 79 82t110 29q72 0 120 -29.5t74 -83.5q47 51 100.5 82t127.5 31q113 0 169 -72.5t56 -189.5v-760h-162v717q0 66 -33 103.5t-92 37.5q-55 0 -95 -39t-40 -104v-715h-162v717q0 66 -32.5 103.5t-92.5 37.5q-59 0 -97 -43t-38 -115v-700h-160z " />
<glyph unicode="n" horiz-adv-x="749" d="M72 0v1012h161v-101h7q72 111 206 111q113 0 169.5 -72.5t56.5 -189.5v-760h-164v717q0 66 -31 103.5t-98 37.5q-66 0 -107 -43t-41 -115v-700h-159z" />
<glyph unicode="o" horiz-adv-x="741" d="M68 496q0 51 2 105t6 103.5t10 89.5t16 64q29 78 96.5 123t182.5 45q86 0 140 -22.5t87 -62.5t47.5 -94t18.5 -118q4 -59 6 -126.5t2 -121.5q0 -117 -12 -233q-10 -82 -41 -133.5t-75 -80t-95 -38.5t-101 -10q-63 0 -109 16t-79 43t-53.5 62.5t-30.5 72.5q-6 25 -10 62 t-5 81t-2 89t-1 84zM227 461q0 -68 2 -132.5t13 -99.5q29 -94 135 -94q43 0 75.5 25.5t49.5 66.5q4 10 8 38t7 66t4 81t1 86t-1 85t-2 80.5t-4 69.5t-9 49q-29 97 -129 97q-41 0 -75 -18.5t-52 -65.5q-12 -29 -16.5 -120t-6.5 -214z" />
<glyph unicode="p" horiz-adv-x="745" d="M68 -393v1407h161v-78l4 -2q33 45 70 68.5t117 23.5q27 0 65.5 -7t74.5 -32.5t64.5 -75t39.5 -133.5q6 -61 7 -128.5t1 -127.5q0 -111 -5 -208t-31 -168.5t-79 -113.5t-149 -42q-59 0 -102.5 21.5t-72.5 62.5h-4v-467h-161zM227 307q0 -72 33 -114.5t105 -42.5 q45 0 72.5 17t43 60t21.5 114t6 175q0 94 -3 160.5t-17.5 109.5t-43 62.5t-79.5 19.5q-68 0 -103 -45t-35 -114v-402z" />
<glyph unicode="q" horiz-adv-x="753" d="M63 424v171t11 181q8 84 37.5 133t66.5 75t75 33t66 7q80 0 117 -23.5t70 -68.5l4 2v78h162v-1409h-162v493h-4q-31 -55 -90.5 -80.5t-106.5 -25.5q-84 0 -133 35.5t-73.5 96t-32 138.5t-7.5 164zM227 514q0 -98 3 -166.5t16.5 -114t43 -66t85.5 -20.5q57 0 97 43t40 103 v414q0 70 -34.5 114.5t-102.5 44.5q-51 0 -80 -19.5t-44 -62.5t-19.5 -109.5t-4.5 -160.5z" />
<glyph unicode="r" horiz-adv-x="526" d="M102 0v1012h162v-115h4q39 78 90.5 103.5t128.5 25.5h19v-195q-16 2 -29.5 3.5t-27.5 1.5q-88 0 -136.5 -42t-48.5 -149v-645h-162z" />
<glyph unicode="s" horiz-adv-x="694" d="M61 260l166 27v-8q0 -64 29 -103q31 -41 90 -41q76 0 104.5 35t28.5 111q0 35 -6 60.5t-22.5 45t-45 35.5t-75.5 35q-78 29 -128 61.5t-78 69.5t-38 78t-10 86q0 121 70.5 197.5t211.5 76.5q152 0 216.5 -74.5t64.5 -203.5l-168 -23v17q-1 67 -29 99q-32 36 -86 36 q-37 0 -61.5 -11.5t-37.5 -30t-18.5 -41t-5.5 -42.5q0 -25 6.5 -46.5t25 -41t51 -38t87.5 -36.5q76 -27 122 -58.5t71 -69.5t32 -82t7 -97q0 -135 -66.5 -216t-214.5 -81q-147 0 -217.5 70.5t-75.5 203.5z" />
<glyph unicode="t" horiz-adv-x="473" d="M20 887v125h111v248h160v-248h131v-125h-131v-611q0 -78 25.5 -100t72.5 -22h31v-154h-82q-66 0 -107 20.5t-64.5 53t-31.5 72.5t-8 79v662h-107z" />
<glyph unicode="u" horiz-adv-x="755" d="M74 254v760h164v-717q0 -150 131 -150q59 0 102 43t43 115v709h160v-1012h-162v100h-6q-71 -110 -205 -110h-2q-113 0 -169 72.5t-56 189.5z" />
<glyph unicode="v" horiz-adv-x="690" d="M10 1012h172l88 -418l74 -354h6l76 362l84 410h170l-242 -1012h-186z" />
<glyph unicode="w" horiz-adv-x="1126" d="M20 1012h170l72 -367l72 -389h6l70 393l73 363h166l68 -353l74 -409h6l69 401l70 361h170l-227 -1012h-166l-70 307l-78 383h-8l-74 -368l-71 -322h-164z" />
<glyph unicode="x" horiz-adv-x="679" d="M12 0l248 516l-240 496h183l141 -334l133 334h189l-234 -494l238 -518h-181l-145 350l-154 -350h-178z" />
<glyph unicode="y" horiz-adv-x="688" d="M10 1012h172l86 -387l82 -351h6l76 355l84 383h166l-291 -1182q-25 -102 -78 -164.5t-161 -62.5h-62v139h41q57 0 83 38t48 140l17 72z" />
<glyph unicode="z" horiz-adv-x="626" d="M47 0v154l356 714h-329v142h506v-142l-357 -714h357v-154h-533z" />
<glyph unicode="{" horiz-adv-x="471" d="M39 557v105q39 6 63.5 29.5t40 59t21.5 82t6 95.5v280q0 102 51 162t127 60h90v-111h-39q-27 0 -43 -16.5t-26.5 -42t-14.5 -57.5t-4 -62v-258q0 -66 -13 -114t-33.5 -81t-42 -50t-36.5 -24v-6q14 -6 36 -23.5t42.5 -50t33.5 -79.5t13 -111v-268q0 -31 4 -62.5 t14.5 -57.5t27 -42t42.5 -16h39v-109h-90q-76 0 -127 59.5t-51 159.5v287q0 109 -26.5 180.5t-104.5 81.5z" />
<glyph unicode="|" horiz-adv-x="430" d="M154 -332v1798h129v-1798h-129z" />
<glyph unicode="}" horiz-adv-x="471" d="M41 -102h39q27 0 43 16t26.5 42t14.5 57.5t4 62.5v268q0 63 13.5 110.5t34 80t40.5 50t37 23.5v6q-16 6 -36.5 23.5t-41 50.5t-34 81t-13.5 114v258q0 31 -4 62.5t-14.5 57t-27 42t-42.5 16.5h-39v111h90q76 0 127 -59.5t51 -162.5v-280q0 -49 6.5 -95.5t21.5 -82 t39.5 -59t63.5 -29.5v-105q-78 -10 -104.5 -82t-26.5 -180v-287q0 -100 -51 -159.5t-127 -59.5h-90v109z" />
<glyph unicode="~" d="M20 457q35 61 86 108t123 47q49 0 90 -14t79 -31.5t74 -32t75 -14.5t58.5 18.5t56.5 61.5l92 -55q-37 -68 -87.5 -117t-121.5 -49q-39 0 -77 15.5t-78 33.5t-80 33.5t-83 15.5q-39 0 -61.5 -17.5t-61.5 -62.5z" />
<glyph unicode="&#xa1;" horiz-adv-x="466" d="M152 -401l14 1063h135l14 -1063h-163zM152 862v164h163v-164h-163z" />
<glyph unicode="&#xa2;" d="M94 496q0 51 2 105t5 103.5t9.5 89.5t16.5 64q25 68 78 111t143 53v209h72v-205q141 -6 201.5 -86t60.5 -213l-168 -22q0 80 -24.5 120.5t-69.5 51.5v-742q49 8 71.5 51t22.5 115l166 -29q-4 -131 -66.5 -202.5t-193.5 -81.5v-228h-72v228q-109 10 -163 65.5t-72 126.5 q-6 25 -10.5 62t-5.5 81t-2 89t-1 84zM254 492q0 -92 2 -160t12 -103t28.5 -57t51.5 -33v735q-45 -14 -72 -79q-23 -51 -22 -303z" />
<glyph unicode="&#xa3;" d="M61 0v145q27 51 50.5 100.5t40 100.5t25.5 106.5t9 122.5q0 10 -1 21.5t-1 21.5h-118v134h108q-10 63 -24.5 109t-30 85t-25.5 79t-10 93q0 145 83 232.5t226 87.5q147 0 236.5 -82t85.5 -236l-162 -39q2 94 -36 150.5t-122 56.5q-63 0 -103 -44t-40 -114q0 -37 10 -74.5 t23.5 -81.5t28 -98.5t24.5 -123.5h194v-134h-184v-34q0 -135 -29.5 -235.5t-76.5 -203.5h448v-145h-629z" />
<glyph unicode="&#xa5;" d="M49 1425h158l178 -612h6l180 612h158l-242 -743h211v-100h-235v-125h235v-103h-235v-356h-148v356h-231v103h231v125h-231v100h207z" />
<glyph unicode="&#xa7;" horiz-adv-x="866" d="M94 -29l90 101q59 -53 107.5 -72.5t109.5 -19.5q92 0 138.5 45t46.5 112q0 66 -55.5 124t-170.5 122q-68 37 -117.5 70.5t-81.5 70.5t-48.5 81t-16.5 104q0 72 39 134t103 101q-47 45 -71 93t-24 114q0 61 23.5 114.5t64.5 91.5t98.5 59.5t125.5 21.5q96 0 173 -33 t136 -88l-100 -103q-59 53 -109.5 72t-99.5 19q-72 0 -113 -42t-41 -100q0 -68 50 -113.5t136 -97.5q61 -37 116.5 -72.5t96.5 -77.5t66 -91.5t25 -110.5q0 -78 -35 -138.5t-99 -101.5q41 -49 63.5 -102t22.5 -113q0 -137 -93 -217t-253 -80q-86 0 -166.5 35t-136.5 88z M252 721q0 -41 29.5 -79t73.5 -71.5t95.5 -62.5t94.5 -51q47 16 69.5 54t22.5 81q0 37 -15.5 67.5t-49 60.5t-88 60.5t-132.5 67.5q-47 -10 -73.5 -45t-26.5 -82z" />
<glyph unicode="&#xa8;" horiz-adv-x="741" d="M145 1206v164h142v-164h-142zM461 1206v164h139v-164h-139z" />
<glyph unicode="&#xa9;" horiz-adv-x="1439" d="M94 698q0 154 40 286t118 228.5t194.5 150.5t268.5 54q150 0 264.5 -54t193 -150.5t119.5 -228.5t41 -286t-41 -283.5t-119.5 -226t-193 -150.5t-264.5 -54q-154 0 -269.5 54t-193.5 150.5t-118 226.5t-40 283zM211 698q0 -127 32.5 -237.5t97.5 -193.5t159 -131t215 -48 q125 0 219 48t157.5 131t94.5 193.5t31 237.5t-33 240t-95.5 197t-156.5 132t-217 48q-129 0 -223.5 -48t-157 -132t-93 -197t-30.5 -240zM489 479v404q0 109 67 168t167 59q47 0 90 -14.5t75 -43t49 -69.5t15 -96l-112 -27q2 66 -30 105t-91 39q-51 0 -83 -34t-32 -77v-428 q0 -45 33 -76t82 -31q59 0 88 34t33 108l112 -21q0 -121 -66.5 -175t-162.5 -54q-47 0 -90 14.5t-75 43t-50.5 71.5t-18.5 100z" />
<glyph unicode="&#xaa;" horiz-adv-x="509" d="M29 764q0 37 8 76t30.5 70.5t61.5 51t98 19.5h99v78q0 35 -15.5 53t-62.5 18q-25 0 -49.5 -16t-32.5 -55l-125 35q16 72 71.5 114.5t139.5 42.5q98 0 153.5 -42t55.5 -150v-488h-135v45q-29 -29 -62 -41t-74 -12q-47 0 -77.5 17.5t-49 46t-26.5 64.5t-8 73zM160 770 q0 -84 76 -84q47 0 68.5 25.5t21.5 68.5v88h-68q-41 0 -69.5 -21.5t-28.5 -76.5z" />
<glyph unicode="&#xab;" horiz-adv-x="888" d="M90 475l219 381h160l-217 -381l217 -381h-160zM422 475l219 381h160l-215 -381l215 -381h-160z" />
<glyph unicode="&#xac;" d="M18 541v123h742l-2 -459h-121v336h-619z" />
<glyph unicode="&#xad;" horiz-adv-x="708" d="M100 518v137h531v-137h-531z" />
<glyph unicode="&#xae;" horiz-adv-x="995" d="M104 1004q0 98 26 181t75 143.5t122.5 94t170.5 33.5q94 0 166.5 -33.5t122 -94t75 -143.5t25.5 -181q0 -96 -25.5 -178.5t-75 -142.5t-122 -94t-166.5 -34q-96 0 -170 34t-123 94t-75 142t-26 179zM188 1008q0 -82 20.5 -151t59.5 -118t96.5 -76.5t133.5 -27.5 q80 0 137 28.5t94 79t54.5 119t17.5 146.5t-19.5 146.5t-57.5 119.5t-95 80.5t-131 29.5q-80 0 -137.5 -29.5t-96.5 -80.5t-57.5 -120t-18.5 -146zM352 725v547h144q150 0 149 -166q0 -47 -15.5 -85t-56.5 -60q20 -59 43 -118l46 -118h-97l-76 221h-49v-221h-88zM440 1022 h49q39 0 53.5 23.5t14.5 60.5q0 41 -15.5 64.5t-58.5 23.5h-43v-172z" />
<glyph unicode="&#xaf;" horiz-adv-x="739" d="M145 1204v137h490v-137h-490z" />
<glyph unicode="&#xb0;" horiz-adv-x="575" d="M88 1229q0 43 16.5 81t44 66.5t65.5 45t81 16.5t81 -16.5t65.5 -45t44 -66.5t16.5 -81t-16.5 -81t-44 -66.5t-65.5 -45t-81 -16.5t-81 16.5t-65.5 45t-44 66.5t-16.5 81zM180 1229q0 -49 34 -83t81 -34t81 34t34 83t-34 83t-81 34t-81 -34t-34 -83z" />
<glyph unicode="&#xb1;" d="M18 -2v123h744v-123h-744zM18 541v123h312v335h121v-335h311v-123h-311v-336h-121v336h-312z" />
<glyph unicode="&#xb4;" horiz-adv-x="731" d="M279 1174l139 344l145 -52l-196 -327z" />
<glyph unicode="&#xb5;" horiz-adv-x="790" d="M96 -395v1407h164v-717q0 -66 35 -103.5t102 -37.5q66 0 103 38.5t37 110.5v707h159v-1010h-161v100h-7q-25 -51 -76 -77.5t-104 -26.5q-49 0 -90 22v-413h-162z" />
<glyph unicode="&#xb6;" horiz-adv-x="817" d="M25 1040q0 78 13 151t43 129t79 90t121 34h487v-166h-92v-1446h-139v1446h-127v-1446h-142v832h-22q-104 0 -162.5 104t-58.5 272z" />
<glyph unicode="&#xb7;" horiz-adv-x="395" d="M106 453v186h179v-186h-179z" />
<glyph unicode="&#xb8;" horiz-adv-x="882" d="M199 -387l26 74q35 -16 63.5 -20.5t53.5 -4.5q31 0 54.5 17.5t23.5 52.5q0 39 -23.5 60.5t-83.5 17.5l-32 28l55 201l76 -4l-39 -148q47 -4 77.5 -19t48 -38t24.5 -48.5t7 -47.5q0 -25 -9 -51.5t-28.5 -49t-52 -37t-78.5 -14.5q-16 0 -67 4t-96 27z" />
<glyph unicode="&#xba;" horiz-adv-x="509" d="M37 899q0 68 6 136.5t18 99.5q23 57 71 86.5t130 29.5q90 0 135 -33.5t62 -80.5q6 -18 10 -49t6 -67t3 -72t1 -66q0 -39 -2 -72t-6 -70q-6 -55 -27.5 -90t-51.5 -55.5t-65.5 -27.5t-70.5 -7q-49 0 -86 12.5t-61.5 32t-39 43t-20.5 45.5q-8 31 -10 92.5t-2 112.5zM170 794 q0 -40 8 -63q12 -53 82 -53q33 0 51.5 15.5t22.5 29.5q10 23 13 73t3 105q0 53 -2 104.5t-10 77.5q-17 50 -78 50q-25 0 -45 -9.5t-31 -36.5q-6 -20 -10 -77.5t-4 -132.5v-83z" />
<glyph unicode="&#xbb;" horiz-adv-x="888" d="M92 94l215 381l-215 381h160l219 -381l-219 -381h-160zM424 94l217 381l-217 381h160l219 -381l-219 -381h-160z" />
<glyph unicode="&#xbf;" horiz-adv-x="759" d="M59 -70q0 53 4.5 91t14.5 71t27.5 67t44.5 79l94 161q16 27 26.5 55.5t12.5 63.5v141h159v-170q0 -41 -12 -79.5t-35 -73.5q-55 -90 -88 -142.5t-51 -91.5t-24.5 -73.5t-6.5 -87.5q0 -41 6.5 -78t23.5 -64.5t48 -44t80 -16.5q66 0 111 45t45 149l163 -18 q0 -84 -25.5 -146.5t-68.5 -103.5t-101 -60.5t-124 -19.5q-172 0 -248 90t-76 256zM285 858v164h159v-164h-159z" />
<glyph unicode="&#xc0;" horiz-adv-x="808" d="M27 0l303 1425h151l307 -1425h-159l-66 317h-317l-64 -317h-155zM84 1661l100 117l291 -232l-59 -73zM272 469h263l-70 338l-57 328h-9l-59 -332z" />
<glyph unicode="&#xc1;" horiz-adv-x="808" d="M27 0l303 1425h151l307 -1425h-159l-66 317h-317l-64 -317h-155zM272 469h263l-70 338l-57 328h-9l-59 -332zM332 1542l291 232l100 -117l-332 -189z" />
<glyph unicode="&#xc2;" horiz-adv-x="808" d="M27 0l303 1425h151l307 -1425h-159l-66 317h-317l-64 -317h-155zM96 1546l266 244h97l252 -240l-70 -61l-238 151l-237 -151zM272 469h263l-70 338l-57 328h-9l-59 -332z" />
<glyph unicode="&#xc3;" horiz-adv-x="808" d="M27 0l303 1425h151l307 -1425h-159l-66 317h-317l-64 -317h-155zM109 1585q12 27 31.5 53.5t42 49t49 37t55.5 14.5q31 0 57.5 -12.5t54 -26.5t56 -26.5t59.5 -12.5q29 0 52.5 19.5t54.5 60.5l79 -55q-39 -72 -88 -113t-94 -41q-31 0 -60.5 12t-57 25.5t-52 26 t-49.5 12.5q-57 0 -109 -74zM272 469h263l-70 338l-57 328h-9l-59 -332z" />
<glyph unicode="&#xc4;" horiz-adv-x="808" d="M27 0l303 1425h151l307 -1425h-159l-66 317h-317l-64 -317h-155zM176 1540v164h141v-164h-141zM272 469h263l-70 338l-57 328h-9l-59 -332zM492 1540v164h139v-164h-139z" />
<glyph unicode="&#xc5;" horiz-adv-x="808" d="M27 0l303 1425h151l307 -1425h-159l-66 317h-317l-64 -317h-155zM219 1638q0 39 14.5 73t40 58.5t59.5 39t73 14.5q78 0 131 -53.5t53 -131.5t-53 -131t-131 -53q-39 0 -73 14.5t-59.5 39t-40 58t-14.5 72.5zM272 469h263l-70 338l-57 328h-9l-59 -332zM307 1636 q0 -41 29 -69.5t70 -28.5t68.5 28.5t27.5 69.5t-27.5 69t-68.5 28t-70 -28t-29 -69z" />
<glyph unicode="&#xc6;" horiz-adv-x="1277" d="M8 0l512 1425h705v-149h-449v-477h389v-150h-389v-499h449v-150h-611v373h-315l-127 -373h-164zM352 524h262v752h-6z" />
<glyph unicode="&#xc7;" horiz-adv-x="786" d="M96 330v704q0 76 13.5 148.5t48.5 129t98.5 91.5t161.5 35q166 0 240.5 -90.5t74.5 -235.5l-162 -29q2 94 -33.5 149.5t-121.5 55.5q-49 0 -80 -22.5t-48.5 -56t-23.5 -74.5t-6 -78v-719q0 -31 6 -66.5t23.5 -65.5t47.5 -50.5t79 -20.5q80 0 117.5 49t39.5 156l166 -29 q-4 -141 -70.5 -225t-199.5 -96l-27 -103q47 -4 78 -19t48.5 -38t24.5 -48.5t7 -47.5q0 -25 -9 -51.5t-28.5 -49t-52.5 -37t-78 -14.5q-16 0 -67.5 4t-96.5 27l27 74q35 -16 63.5 -20.5t53.5 -4.5q31 0 54 17.5t23 52.5q0 39 -23.5 60.5t-82.5 17.5l-33 28l41 150 q-147 8 -220 97t-73 245z" />
<glyph unicode="&#xc8;" horiz-adv-x="749" d="M109 0v1425h610v-149h-449v-477h389v-150h-389v-502h449v-147h-610zM117 1661l100 117l291 -232l-59 -73z" />
<glyph unicode="&#xc9;" horiz-adv-x="749" d="M109 0v1425h610v-149h-449v-477h389v-150h-389v-502h449v-147h-610zM274 1542l291 232l101 -117l-332 -189z" />
<glyph unicode="&#xca;" horiz-adv-x="749" d="M100 1546l267 244h96l252 -240l-70 -61l-237 151l-238 -151zM109 0v1425h610v-149h-449v-477h389v-150h-389v-502h449v-147h-610z" />
<glyph unicode="&#xcb;" horiz-adv-x="749" d="M109 0v1425h610v-149h-449v-477h389v-150h-389v-502h449v-147h-610zM186 1540v164h142v-164h-142zM502 1540v164h139v-164h-139z" />
<glyph unicode="&#xcc;" horiz-adv-x="393" d="M-100 1661l100 117l291 -232l-60 -73zM115 0v1425h164v-1425h-164z" />
<glyph unicode="&#xcd;" horiz-adv-x="393" d="M109 1542l290 232l101 -117l-332 -189zM115 0v1425h164v-1425h-164z" />
<glyph unicode="&#xce;" horiz-adv-x="393" d="M-111 1546l267 244h96l252 -240l-70 -61l-237 151l-238 -151zM115 0v1425h164v-1425h-164z" />
<glyph unicode="&#xcf;" horiz-adv-x="393" d="M-31 1540v164h142v-164h-142zM115 0v1425h164v-1425h-164zM285 1540v164h139v-164h-139z" />
<glyph unicode="&#xd0;" horiz-adv-x="866" d="M12 678v123h97v624h331q127 0 201 -44t102 -148q23 -86 23 -213v-305v-298t-27 -206q-39 -121 -124 -166t-193 -45h-313v678h-97zM270 147h146q100 0 143 55.5t43 157.5v709q0 96 -41 151.5t-145 55.5h-146v-475h142v-123h-142v-531z" />
<glyph unicode="&#xd1;" horiz-adv-x="921" d="M102 0v1425h154l295 -723l98 -260l8 2v981h162v-1425h-151l-295 717l-103 258h-6v-975h-162zM168 1567q12 27 31.5 53.5t42 49t49 36.5t55.5 14q31 0 57.5 -12t54 -26.5t56.5 -27t59 -12.5q29 0 52.5 19.5t54.5 60.5l80 -55q-39 -72 -88 -113t-94 -41q-31 0 -61 12.5 t-57.5 26t-52 25.5t-49.5 12q-57 0 -108 -73z" />
<glyph unicode="&#xd2;" horiz-adv-x="847" d="M96 336v702q0 76 13.5 147.5t49.5 128t99.5 90.5t165.5 34q106 0 170.5 -30t99.5 -83t46.5 -125t11.5 -158v-659q0 -190 -75 -293.5t-255 -103.5q-176 0 -251 96t-75 254zM162 1661l100 117l291 -232l-59 -73zM258 334q0 -31 6 -66t24.5 -65.5t50.5 -50t83 -19.5t84 20.5 t51 52.5t25.5 72.5t7.5 83.5v707q0 37 -5 76t-21.5 70.5t-50.5 53t-89 21.5q-61 0 -94 -29.5t-49.5 -70.5t-19.5 -87t-3 -77v-692z" />
<glyph unicode="&#xd3;" horiz-adv-x="847" d="M96 336v702q0 76 13.5 147.5t49.5 128t99.5 90.5t165.5 34q106 0 170.5 -30t99.5 -83t46.5 -125t11.5 -158v-659q0 -190 -75 -293.5t-255 -103.5q-176 0 -251 96t-75 254zM258 334q0 -31 6 -66t24.5 -65.5t50.5 -50t83 -19.5t84 20.5t51 52.5t25.5 72.5t7.5 83.5v707 q0 37 -5 76t-21.5 70.5t-50.5 53t-89 21.5q-61 0 -94 -29.5t-49.5 -70.5t-19.5 -87t-3 -77v-692zM332 1542l291 232l100 -117l-332 -189z" />
<glyph unicode="&#xd4;" horiz-adv-x="847" d="M96 336v702q0 76 13.5 147.5t49.5 128t99.5 90.5t165.5 34q106 0 170.5 -30t99.5 -83t46.5 -125t11.5 -158v-659q0 -190 -75 -293.5t-255 -103.5q-176 0 -251 96t-75 254zM119 1546l266 244h96l252 -240l-69 -61l-238 151l-238 -151zM258 334q0 -31 6 -66t24.5 -65.5 t50.5 -50t83 -19.5t84 20.5t51 52.5t25.5 72.5t7.5 83.5v707q0 37 -5 76t-21.5 70.5t-50.5 53t-89 21.5q-61 0 -94 -29.5t-49.5 -70.5t-19.5 -87t-3 -77v-692z" />
<glyph unicode="&#xd5;" horiz-adv-x="847" d="M96 336v702q0 76 13.5 147.5t49.5 128t99.5 90.5t165.5 34q106 0 170.5 -30t99.5 -83t46.5 -125t11.5 -158v-659q0 -190 -75 -293.5t-255 -103.5q-176 0 -251 96t-75 254zM131 1585q12 27 31.5 53.5t42 49t49.5 37t55 14.5q31 0 57.5 -12.5t54.5 -26.5t56.5 -26.5 t59.5 -12.5q29 0 52 19.5t54 60.5l80 -55q-39 -72 -88 -113t-94 -41q-31 0 -60.5 12t-57.5 25.5t-52.5 26t-48.5 12.5q-57 0 -109 -74zM258 334q0 -31 6 -66t24.5 -65.5t50.5 -50t83 -19.5t84 20.5t51 52.5t25.5 72.5t7.5 83.5v707q0 37 -5 76t-21.5 70.5t-50.5 53t-89 21.5 q-61 0 -94 -29.5t-49.5 -70.5t-19.5 -87t-3 -77v-692z" />
<glyph unicode="&#xd6;" horiz-adv-x="847" d="M96 336v702q0 76 13.5 147.5t49.5 128t99.5 90.5t165.5 34q106 0 170.5 -30t99.5 -83t46.5 -125t11.5 -158v-659q0 -190 -75 -293.5t-255 -103.5q-176 0 -251 96t-75 254zM197 1540v164h141v-164h-141zM258 334q0 -31 6 -66t24.5 -65.5t50.5 -50t83 -19.5t84 20.5 t51 52.5t25.5 72.5t7.5 83.5v707q0 37 -5 76t-21.5 70.5t-50.5 53t-89 21.5q-61 0 -94 -29.5t-49.5 -70.5t-19.5 -87t-3 -77v-692zM512 1540v164h139v-164h-139z" />
<glyph unicode="&#xd8;" horiz-adv-x="847" d="M74 27l55 125q-33 78 -33 184v702q0 76 13.5 147.5t49.5 128t99.5 90.5t165.5 34q84 0 141.5 -18.5t93.5 -53.5l33 76l88 -43l-57 -131q16 -47 22.5 -103.5t6.5 -122.5v-659q0 -190 -75 -293.5t-255 -103.5q-152 0 -232 75l-34 -79zM258 446l320 732q-14 47 -48 79.5 t-106 32.5q-61 0 -94 -29.5t-49.5 -70.5t-19.5 -87t-3 -77v-580zM270 244q14 -45 49 -78t103 -33q51 0 84 20.5t51 52.5t25.5 72.5t7.5 83.5v605z" />
<glyph unicode="&#xd9;" horiz-adv-x="860" d="M102 336v1087h162v-1089q0 -31 6 -66t24.5 -65.5t50.5 -50t83 -19.5t84 20.5t51.5 52.5t25.5 72.5t7 83.5v1061h162v-1040q0 -190 -74 -293.5t-254 -103.5q-176 0 -252 96t-76 254zM141 1661l101 117l290 -232l-59 -73z" />
<glyph unicode="&#xda;" horiz-adv-x="860" d="M102 336v1087h162v-1089q0 -31 6 -66t24.5 -65.5t50.5 -50t83 -19.5t84 20.5t51.5 52.5t25.5 72.5t7 83.5v1061h162v-1040q0 -190 -74 -293.5t-254 -103.5q-176 0 -252 96t-76 254zM348 1542l291 232l100 -117l-331 -189z" />
<glyph unicode="&#xdb;" horiz-adv-x="860" d="M102 336v1087h162v-1089q0 -31 6 -66t24.5 -65.5t50.5 -50t83 -19.5t84 20.5t51.5 52.5t25.5 72.5t7 83.5v1061h162v-1040q0 -190 -74 -293.5t-254 -103.5q-176 0 -252 96t-76 254zM123 1546l266 244h96l252 -240l-69 -61l-238 151l-237 -151z" />
<glyph unicode="&#xdc;" horiz-adv-x="860" d="M102 336v1087h162v-1089q0 -31 6 -66t24.5 -65.5t50.5 -50t83 -19.5t84 20.5t51.5 52.5t25.5 72.5t7 83.5v1061h162v-1040q0 -190 -74 -293.5t-254 -103.5q-176 0 -252 96t-76 254zM209 1540v164h141v-164h-141zM524 1540v164h140v-164h-140z" />
<glyph unicode="&#xdd;" horiz-adv-x="770" d="M27 1425h170l104 -333l80 -256h8l184 589h170l-278 -823v-604h-160v604zM313 1542l291 232l101 -117l-332 -189z" />
<glyph unicode="&#xde;" horiz-adv-x="808" d="M106 1425h160v-276h133q109 0 178.5 -28.5t110.5 -83t56.5 -133.5t15.5 -179q0 -90 -14.5 -168t-55.5 -136.5t-113.5 -91t-189.5 -32.5h-117v-297h-161zM270 449h111q74 0 118 22.5t67.5 59t29.5 86t6 104.5q0 57 -7 107.5t-29.5 88t-65.5 59t-115 21.5h-115v-548z" />
<glyph unicode="&#xdf;" horiz-adv-x="768" d="M82 0v1190q0 135 82 216t211 81q125 0 207 -68.5t82 -208.5v-120q0 -72 -25 -125.5t-86 -81.5v-6q63 -23 96 -75t33 -114v-405q0 -53 -11.5 -105.5t-36 -95.5t-66.5 -69.5t-103 -26.5h-86v131h8q76 0 103.5 35.5t27.5 105.5v406q0 66 -31.5 100.5t-80.5 34.5h-27v141h16 q57 0 81 40t24 97v123q0 66 -37 99.5t-90 33.5q-59 0 -95 -39t-36 -94v-1200h-160z" />
<glyph unicode="&#xe0;" horiz-adv-x="739" d="M55 283q0 57 12.5 114.5t43 104.5t84 76.5t137.5 29.5h160v135q0 59 -28 94t-106 35q-41 0 -79.5 -24.5t-49.5 -79.5l-153 43q23 100 98.5 157.5t192.5 57.5q137 0 212.5 -62.5t75.5 -218.5v-745h-163v88h-3q-41 -55 -93 -77.5t-117 -22.5q-63 0 -106.5 25.5t-69 67.5 t-37 94t-11.5 108zM143 1466l146 52l139 -344l-88 -35zM213 293q0 -72 30.5 -110t96.5 -38q76 0 114 43t38 119v160h-119q-63 0 -111.5 -38t-48.5 -136z" />
<glyph unicode="&#xe1;" horiz-adv-x="739" d="M55 283q0 57 12.5 114.5t43 104.5t84 76.5t137.5 29.5h160v135q0 59 -28 94t-106 35q-41 0 -79.5 -24.5t-49.5 -79.5l-153 43q23 100 98.5 157.5t192.5 57.5q137 0 212.5 -62.5t75.5 -218.5v-745h-163v88h-3q-41 -55 -93 -77.5t-117 -22.5q-63 0 -106.5 25.5t-69 67.5 t-37 94t-11.5 108zM213 293q0 -72 30.5 -110t96.5 -38q76 0 114 43t38 119v160h-119q-63 0 -111.5 -38t-48.5 -136zM279 1174l139 344l145 -52l-196 -327z" />
<glyph unicode="&#xe2;" horiz-adv-x="739" d="M55 283q0 57 12.5 114.5t43 104.5t84 76.5t137.5 29.5h160v135q0 59 -28 94t-106 35q-41 0 -79.5 -24.5t-49.5 -79.5l-153 43q23 100 98.5 157.5t192.5 57.5q137 0 212.5 -62.5t75.5 -218.5v-745h-163v88h-3q-41 -55 -93 -77.5t-117 -22.5q-63 0 -106.5 25.5t-69 67.5 t-37 94t-11.5 108zM61 1188l267 285h96l252 -281l-70 -62l-237 193l-238 -193zM213 293q0 -72 30.5 -110t96.5 -38q76 0 114 43t38 119v160h-119q-63 0 -111.5 -38t-48.5 -136z" />
<glyph unicode="&#xe3;" horiz-adv-x="739" d="M55 283q0 57 12.5 114.5t43 104.5t84 76.5t137.5 29.5h160v135q0 59 -28 94t-106 35q-41 0 -79.5 -24.5t-49.5 -79.5l-153 43q23 100 98.5 157.5t192.5 57.5q137 0 212.5 -62.5t75.5 -218.5v-745h-163v88h-3q-41 -55 -93 -77.5t-117 -22.5q-63 0 -106.5 25.5t-69 67.5 t-37 94t-11.5 108zM74 1237q12 27 31.5 53.5t42 49t49 37t55.5 14.5q31 0 57.5 -12.5t54 -27t56.5 -26.5t59 -12q29 0 52.5 19.5t54.5 60.5l80 -56q-39 -72 -88.5 -112.5t-94.5 -40.5q-31 0 -60.5 12t-57 25.5t-52 26t-49.5 12.5q-57 0 -108 -74zM213 293q0 -72 30.5 -110 t96.5 -38q76 0 114 43t38 119v160h-119q-63 0 -111.5 -38t-48.5 -136z" />
<glyph unicode="&#xe4;" horiz-adv-x="739" d="M55 283q0 57 12.5 114.5t43 104.5t84 76.5t137.5 29.5h160v135q0 59 -28 94t-106 35q-41 0 -79.5 -24.5t-49.5 -79.5l-153 43q23 100 98.5 157.5t192.5 57.5q137 0 212.5 -62.5t75.5 -218.5v-745h-163v88h-3q-41 -55 -93 -77.5t-117 -22.5q-63 0 -106.5 25.5t-69 67.5 t-37 94t-11.5 108zM145 1206v164h142v-164h-142zM213 293q0 -72 30.5 -110t96.5 -38q76 0 114 43t38 119v160h-119q-63 0 -111.5 -38t-48.5 -136zM461 1206v164h139v-164h-139z" />
<glyph unicode="&#xe5;" horiz-adv-x="739" d="M55 283q0 57 12.5 114.5t43 104.5t84 76.5t137.5 29.5h160v135q0 59 -28 94t-106 35q-41 0 -79.5 -24.5t-49.5 -79.5l-153 43q23 100 98.5 157.5t192.5 57.5q137 0 212.5 -62.5t75.5 -218.5v-745h-163v88h-3q-41 -55 -93 -77.5t-117 -22.5q-63 0 -106.5 25.5t-69 67.5 t-37 94t-11.5 108zM207 1294q0 39 14.5 73t40 58.5t59 39t72.5 14.5q78 0 131.5 -53.5t53.5 -131.5t-53.5 -131t-131.5 -53q-39 0 -72.5 14.5t-59 39t-40 58t-14.5 72.5zM213 293q0 -72 30.5 -110t96.5 -38q76 0 114 43t38 119v160h-119q-63 0 -111.5 -38t-48.5 -136z M295 1292q0 -41 28.5 -69.5t69.5 -28.5t68.5 28.5t27.5 69.5t-27.5 69t-68.5 28t-69.5 -28t-28.5 -69z" />
<glyph unicode="&#xe6;" horiz-adv-x="1140" d="M47 283q0 57 14.5 113.5t47 102.5t85 74.5t130.5 28.5h159v141q0 59 -32.5 94t-100.5 35q-41 0 -80 -24.5t-49 -79.5l-153 43q23 100 104.5 157.5t185.5 57.5q92 0 141.5 -25.5t73.5 -62.5q37 41 93.5 64.5t134.5 23.5q152 0 219 -84t67 -231v-242h-434q0 -68 3 -137.5 t14 -104.5q29 -92 127 -92q63 0 92 41t35 96l161 -36q-10 -53 -28.5 -99.5t-54 -80t-89 -52t-129.5 -18.5q-98 0 -155.5 35.5t-87.5 87.5q-57 -74 -120 -97.5t-110 -23.5q-80 0 -131 25.5t-80.5 67.5t-41 94t-11.5 108zM205 293q0 -63 34.5 -105.5t106.5 -42.5 q66 0 101.5 45.5t35.5 116.5v164h-118q-63 0 -111.5 -40t-48.5 -138zM655 600h269v78q0 39 -5.5 74.5t-19.5 62.5t-39.5 42t-66.5 15q-37 0 -68 -17t-49 -64q-10 -29 -14.5 -74t-6.5 -117z" />
<glyph unicode="&#xe7;" horiz-adv-x="684" d="M66 496q0 51 2 105t5 103.5t9 89.5t16 64q29 78 94.5 123t180.5 45q152 0 216 -81t64 -218l-168 -22q0 92 -31.5 133t-86.5 41q-41 0 -71 -18.5t-48 -65.5q-12 -31 -16.5 -121t-6.5 -213q0 -68 2 -132.5t13 -99.5q14 -45 43.5 -70.5t83.5 -25.5q63 0 90.5 45t27.5 123 l166 -29q-4 -129 -63.5 -201.5t-188.5 -82.5l-26 -101q47 -4 77.5 -19t48 -38t24.5 -48.5t7 -47.5q0 -25 -9 -51.5t-28.5 -49t-52 -37t-78.5 -14.5q-16 0 -67 4t-96 27l26 74q35 -16 63.5 -20.5t53.5 -4.5q31 0 54.5 17.5t23.5 52.5q0 39 -23.5 60.5t-83.5 17.5l-32 28 l41 150q-111 10 -165.5 65.5t-72.5 126.5q-6 25 -10 62t-5 81t-2 89t-1 84z" />
<glyph unicode="&#xe8;" horiz-adv-x="731" d="M63 496q0 51 1.5 103t5.5 99t10 87t16 67q29 80 95.5 127t181.5 47q152 0 219 -84t67 -231v-250h-434q0 -68 3 -133.5t14 -100.5q29 -92 127 -92q59 0 88.5 40t34.5 112l165 -31q-8 -131 -80.5 -200.5t-220.5 -69.5q-66 0 -112.5 17t-79.5 45t-52.5 62.5t-27.5 69.5 q-6 25 -10 62t-6 81t-3.5 89t-1.5 84zM164 1466l145 52l140 -344l-89 -35zM227 592h269v86q0 39 -5.5 74.5t-19.5 62.5t-39.5 42t-66.5 15q-37 0 -68 -17t-49 -64q-10 -29 -14.5 -78t-6.5 -121z" />
<glyph unicode="&#xe9;" horiz-adv-x="731" d="M63 496q0 51 1.5 103t5.5 99t10 87t16 67q29 80 95.5 127t181.5 47q152 0 219 -84t67 -231v-250h-434q0 -68 3 -133.5t14 -100.5q29 -92 127 -92q59 0 88.5 40t34.5 112l165 -31q-8 -131 -80.5 -200.5t-220.5 -69.5q-66 0 -112.5 17t-79.5 45t-52.5 62.5t-27.5 69.5 q-6 25 -10 62t-6 81t-3.5 89t-1.5 84zM227 592h269v86q0 39 -5.5 74.5t-19.5 62.5t-39.5 42t-66.5 15q-37 0 -68 -17t-49 -64q-10 -29 -14.5 -78t-6.5 -121zM299 1174l139 344l146 -52l-197 -327z" />
<glyph unicode="&#xea;" horiz-adv-x="731" d="M61 1188l267 285h96l252 -281l-70 -62l-237 193l-238 -193zM63 496q0 51 1.5 103t5.5 99t10 87t16 67q29 80 95.5 127t181.5 47q152 0 219 -84t67 -231v-250h-434q0 -68 3 -133.5t14 -100.5q29 -92 127 -92q59 0 88.5 40t34.5 112l165 -31q-8 -131 -80.5 -200.5 t-220.5 -69.5q-66 0 -112.5 17t-79.5 45t-52.5 62.5t-27.5 69.5q-6 25 -10 62t-6 81t-3.5 89t-1.5 84zM227 592h269v86q0 39 -5.5 74.5t-19.5 62.5t-39.5 42t-66.5 15q-37 0 -68 -17t-49 -64q-10 -29 -14.5 -78t-6.5 -121z" />
<glyph unicode="&#xeb;" horiz-adv-x="731" d="M63 496q0 51 1.5 103t5.5 99t10 87t16 67q29 80 95.5 127t181.5 47q152 0 219 -84t67 -231v-250h-434q0 -68 3 -133.5t14 -100.5q29 -92 127 -92q59 0 88.5 40t34.5 112l165 -31q-8 -131 -80.5 -200.5t-220.5 -69.5q-66 0 -112.5 17t-79.5 45t-52.5 62.5t-27.5 69.5 q-6 25 -10 62t-6 81t-3.5 89t-1.5 84zM135 1206v164h141v-164h-141zM227 592h269v86q0 39 -5.5 74.5t-19.5 62.5t-39.5 42t-66.5 15q-37 0 -68 -17t-49 -64q-10 -29 -14.5 -78t-6.5 -121zM451 1206v164h139v-164h-139z" />
<glyph unicode="&#xec;" horiz-adv-x="409" d="M-29 1466l146 52l139 -344l-88 -35zM119 0v1012h164v-1012h-164z" />
<glyph unicode="&#xed;" horiz-adv-x="409" d="M127 0v1012h164v-1012h-164zM152 1174l139 344l145 -52l-196 -327z" />
<glyph unicode="&#xee;" horiz-adv-x="512" d="M-51 1188l266 285h96l252 -281l-69 -62l-238 193l-238 -193zM172 0v1012h164v-1012h-164z" />
<glyph unicode="&#xef;" horiz-adv-x="413" d="M-20 1206v164h141v-164h-141zM129 0v1012h164v-1012h-164zM295 1206v164h139v-164h-139z" />
<glyph unicode="&#xf0;" horiz-adv-x="759" d="M68 489q0 104 9 192.5t27 137.5q25 68 86.5 117t165.5 49q47 0 92.5 -15.5t79.5 -49.5h4q0 72 -4 130t-26 117l-129 -96l-54 74l140 100q-18 31 -48 52.5t-65 36t-70.5 22.5t-66.5 12l22 127q111 -8 186 -38t111 -64q35 -31 54 -56l125 90l53 -67l-131 -98 q14 -31 24.5 -72t16.5 -97.5t8 -130t2 -169.5v-271q0 -57 -2 -136t-8 -138q-10 -82 -41 -133.5t-75 -80t-95 -38.5t-101 -10q-63 0 -109 16t-79 43t-53.5 62.5t-30.5 72.5q-6 25 -10 60.5t-5 78.5t-2 87.5t-1 82.5zM227 414.5q0 -37.5 2 -74.5t4.5 -66.5t8.5 -48.5 q29 -94 135 -94q43 0 75.5 25.5t49.5 66.5q4 10 8 37t7 63.5t4 78.5t1 85q0 86 -2 153t-12 103q-29 97 -129 97q-41 0 -75 -18.5t-52 -65.5q-8 -18 -12 -40t-7.5 -52.5t-4.5 -72.5t-1 -104v-72.5z" />
<glyph unicode="&#xf1;" horiz-adv-x="749" d="M57 1237q12 27 32 53.5t42.5 49t49 37t55.5 14.5q31 0 57 -12.5t54 -27t56.5 -26.5t59.5 -12q29 0 52.5 19.5t53.5 60.5l80 -56q-39 -72 -88 -112.5t-94 -40.5q-31 0 -60.5 12t-57 25.5t-52.5 26t-49 12.5q-57 0 -109 -74zM72 0v1012h161v-101h7q72 111 206 111 q113 0 169.5 -72.5t56.5 -189.5v-760h-164v717q0 66 -31 103.5t-98 37.5q-66 0 -107 -43t-41 -115v-700h-159z" />
<glyph unicode="&#xf2;" horiz-adv-x="741" d="M68 496q0 51 2 105t6 103.5t10 89.5t16 64q29 78 96.5 123t182.5 45q86 0 140 -22.5t87 -62.5t47.5 -94t18.5 -118q4 -59 6 -126.5t2 -121.5q0 -117 -12 -233q-10 -82 -41 -133.5t-75 -80t-95 -38.5t-101 -10q-63 0 -109 16t-79 43t-53.5 62.5t-30.5 72.5q-6 25 -10 62 t-5 81t-2 89t-1 84zM135 1466l146 52l139 -344l-88 -35zM227 461q0 -68 2 -132.5t13 -99.5q29 -94 135 -94q43 0 75.5 25.5t49.5 66.5q4 10 8 38t7 66t4 81t1 86t-1 85t-2 80.5t-4 69.5t-9 49q-29 97 -129 97q-41 0 -75 -18.5t-52 -65.5q-12 -29 -16.5 -120t-6.5 -214z" />
<glyph unicode="&#xf3;" horiz-adv-x="741" d="M68 496q0 51 2 105t6 103.5t10 89.5t16 64q29 78 96.5 123t182.5 45q86 0 140 -22.5t87 -62.5t47.5 -94t18.5 -118q4 -59 6 -126.5t2 -121.5q0 -117 -12 -233q-10 -82 -41 -133.5t-75 -80t-95 -38.5t-101 -10q-63 0 -109 16t-79 43t-53.5 62.5t-30.5 72.5q-6 25 -10 62 t-5 81t-2 89t-1 84zM227 461q0 -68 2 -132.5t13 -99.5q29 -94 135 -94q43 0 75.5 25.5t49.5 66.5q4 10 8 38t7 66t4 81t1 86t-1 85t-2 80.5t-4 69.5t-9 49q-29 97 -129 97q-41 0 -75 -18.5t-52 -65.5q-12 -29 -16.5 -120t-6.5 -214zM279 1174l139 344l145 -52l-196 -327z " />
<glyph unicode="&#xf4;" horiz-adv-x="741" d="M66 1188l266 285h96l252 -281l-70 -62l-237 193l-238 -193zM68 496q0 51 2 105t6 103.5t10 89.5t16 64q29 78 96.5 123t182.5 45q86 0 140 -22.5t87 -62.5t47.5 -94t18.5 -118q4 -59 6 -126.5t2 -121.5q0 -117 -12 -233q-10 -82 -41 -133.5t-75 -80t-95 -38.5t-101 -10 q-63 0 -109 16t-79 43t-53.5 62.5t-30.5 72.5q-6 25 -10 62t-5 81t-2 89t-1 84zM227 461q0 -68 2 -132.5t13 -99.5q29 -94 135 -94q43 0 75.5 25.5t49.5 66.5q4 10 8 38t7 66t4 81t1 86t-1 85t-2 80.5t-4 69.5t-9 49q-29 97 -129 97q-41 0 -75 -18.5t-52 -65.5 q-12 -29 -16.5 -120t-6.5 -214z" />
<glyph unicode="&#xf5;" horiz-adv-x="741" d="M68 496q0 51 2 105t6 103.5t10 89.5t16 64q29 78 96.5 123t182.5 45q86 0 140 -22.5t87 -62.5t47.5 -94t18.5 -118q4 -59 6 -126.5t2 -121.5q0 -117 -12 -233q-10 -82 -41 -133.5t-75 -80t-95 -38.5t-101 -10q-63 0 -109 16t-79 43t-53.5 62.5t-30.5 72.5q-6 25 -10 62 t-5 81t-2 89t-1 84zM78 1237q12 27 31.5 53.5t42 49t49 37t55.5 14.5q31 0 57.5 -12.5t54 -27t56.5 -26.5t59 -12q29 0 52.5 19.5t54.5 60.5l80 -56q-39 -72 -88.5 -112.5t-94.5 -40.5q-31 0 -60.5 12t-57 25.5t-52 26t-49.5 12.5q-57 0 -108 -74zM227 461q0 -68 2 -132.5 t13 -99.5q29 -94 135 -94q43 0 75.5 25.5t49.5 66.5q4 10 8 38t7 66t4 81t1 86t-1 85t-2 80.5t-4 69.5t-9 49q-29 97 -129 97q-41 0 -75 -18.5t-52 -65.5q-12 -29 -16.5 -120t-6.5 -214z" />
<glyph unicode="&#xf6;" horiz-adv-x="741" d="M68 496q0 51 2 105t6 103.5t10 89.5t16 64q29 78 96.5 123t182.5 45q86 0 140 -22.5t87 -62.5t47.5 -94t18.5 -118q4 -59 6 -126.5t2 -121.5q0 -117 -12 -233q-10 -82 -41 -133.5t-75 -80t-95 -38.5t-101 -10q-63 0 -109 16t-79 43t-53.5 62.5t-30.5 72.5q-6 25 -10 62 t-5 81t-2 89t-1 84zM156 1206v164h141v-164h-141zM227 461q0 -68 2 -132.5t13 -99.5q29 -94 135 -94q43 0 75.5 25.5t49.5 66.5q4 10 8 38t7 66t4 81t1 86t-1 85t-2 80.5t-4 69.5t-9 49q-29 97 -129 97q-41 0 -75 -18.5t-52 -65.5q-12 -29 -16.5 -120t-6.5 -214zM471 1206 v164h139v-164h-139z" />
<glyph unicode="&#xf7;" d="M18 541v125h742v-125h-742zM283 274q0 45 31.5 77t76.5 32q43 0 75 -32t32 -77t-32 -76.5t-75 -31.5q-45 0 -76.5 31.5t-31.5 76.5zM283 928q0 45 31.5 76.5t76.5 31.5q43 0 75 -31.5t32 -76.5t-32 -77t-75 -32q-45 0 -76.5 32t-31.5 77z" />
<glyph unicode="&#xf8;" horiz-adv-x="741" d="M68 496q0 51 2 105t6 103.5t10 89.5t16 64q29 78 96.5 123t182.5 45q66 0 113 -14.5t79 -38.5l29 55l70 -37l-43 -82q20 -37 30.5 -83t14.5 -97q4 -59 6 -126.5t2 -121.5q0 -117 -12 -233q-10 -82 -41 -133.5t-75 -80t-95 -38.5t-101 -10q-63 0 -109 15t-79 44l-35 -65 l-63 36l45 88q-20 33 -31 76q-6 25 -10 62t-5 81t-2 89t-1 84zM227 387q0 -37 2 -70l263 500q-37 62 -115 62q-41 0 -75 -18.5t-52 -65.5q-12 -29 -16.5 -120t-6.5 -214v-74zM252 201q35 -66 125 -66q43 0 75.5 25.5t49.5 66.5q4 10 8 38t7 66t4 81t1 86q0 53 -1 105t-5 97z " />
<glyph unicode="&#xf9;" horiz-adv-x="755" d="M74 254v760h164v-717q0 -150 131 -150q59 0 102 43t43 115v709h160v-1012h-162v100h-6q-72 -111 -207 -110q-113 0 -169 72.5t-56 189.5zM143 1466l146 52l139 -344l-88 -35z" />
<glyph unicode="&#xfa;" horiz-adv-x="755" d="M74 254v760h164v-717q0 -150 131 -150q59 0 102 43t43 115v709h160v-1012h-162v100h-6q-72 -111 -207 -110q-113 0 -169 72.5t-56 189.5zM352 1174l140 344l145 -52l-197 -327z" />
<glyph unicode="&#xfb;" horiz-adv-x="755" d="M61 1188l267 285h96l252 -281l-70 -62l-237 193l-238 -193zM74 254v760h164v-717q0 -150 131 -150q59 0 102 43t43 115v709h160v-1012h-162v100h-6q-72 -111 -207 -110q-113 0 -169 72.5t-56 189.5z" />
<glyph unicode="&#xfc;" horiz-adv-x="755" d="M74 254v760h164v-717q0 -150 131 -150q59 0 102 43t43 115v709h160v-1012h-162v100h-6q-72 -111 -207 -110q-113 0 -169 72.5t-56 189.5zM145 1206v164h142v-164h-142zM461 1206v164h139v-164h-139z" />
<glyph unicode="&#xfd;" horiz-adv-x="688" d="M10 1012h172l86 -387l82 -351h6l76 355l84 383h166l-291 -1182q-25 -102 -78 -164.5t-161 -62.5h-62v139h41q57 0 83 38t48 140l17 72zM283 1174l139 344l145 -52l-196 -327z" />
<glyph unicode="&#xfe;" horiz-adv-x="745" d="M68 -393v1816h161v-487l4 -2q33 45 70 68.5t117 23.5q27 0 65.5 -7t74.5 -32.5t64.5 -75t39.5 -133.5q6 -61 7 -128.5t1 -127.5q0 -111 -5 -208t-31 -168.5t-79 -113.5t-149 -42q-59 0 -102.5 21.5t-72.5 62.5h-4v-467h-161zM227 307q0 -72 33 -114.5t105 -42.5 q45 0 72.5 17t43 60t21.5 114t6 175q0 94 -3 160.5t-17.5 109.5t-43 62.5t-79.5 19.5q-68 0 -103 -45t-35 -114v-402z" />
<glyph unicode="&#xff;" horiz-adv-x="688" d="M10 1012h172l86 -387l82 -351h6l76 355l84 383h166l-291 -1182q-25 -102 -78 -164.5t-161 -62.5h-62v139h41q57 0 83 38t48 140l17 72zM111 1206v164h141v-164h-141zM426 1206v164h139v-164h-139z" />
<glyph unicode="&#x131;" horiz-adv-x="348" d="M90 0v1012h164v-1012h-164z" />
<glyph unicode="&#x152;" horiz-adv-x="1159" d="M88 336v702q0 76 13.5 147.5t49 128t99 90.5t166.5 34q68 0 116 -13h596v-149h-448v-477h389v-150h-389v-502h448v-147h-596q-25 -6 -54 -10t-62 -4q-176 0 -252 96t-76 254zM250 334q0 -31 6 -66t24.5 -65.5t50.5 -50t83 -19.5q66 0 104 35v1092q-18 14 -42.5 22 t-59.5 8q-61 0 -94 -29.5t-49.5 -70.5t-19.5 -87t-3 -77v-692z" />
<glyph unicode="&#x153;" horiz-adv-x="1179" d="M68 496q0 51 2 105t5 103.5t9 89.5t16 64q29 78 96.5 123t182.5 45q82 0 138 -25.5t91 -66.5q37 43 93.5 67.5t138.5 24.5q152 0 219 -84t67 -231v-250h-434q0 -68 3 -133.5t14 -100.5q29 -92 127 -92q63 0 91.5 41t35.5 96l161 -36q-10 -53 -28.5 -99.5t-54 -80t-89 -52 t-129.5 -18.5q-82 0 -135 25.5t-86 66.5q-47 -55 -113.5 -73.5t-130.5 -18.5q-63 0 -109 16t-79 43t-53.5 62.5t-30.5 72.5q-6 25 -10 62t-5 81t-2 89t-1 84zM227 461q0 -68 2 -132.5t13 -99.5q29 -94 135 -94q43 0 75.5 25.5t49.5 66.5q4 10 8 38t7 66t4 81t1 86t-1 85 t-2 80.5t-4 69.5t-9 49q-29 97 -129 97q-41 0 -75 -18.5t-52 -65.5q-16 -39 -18.5 -125t-4.5 -209zM694 592h269v86q0 39 -5.5 74.5t-19.5 62.5t-40 42t-67 15q-37 0 -67.5 -17t-48.5 -64q-10 -29 -14.5 -78t-6.5 -121z" />
<glyph unicode="&#x178;" horiz-adv-x="770" d="M27 1425h170l104 -333l80 -256h8l184 589h170l-278 -823v-604h-160v604zM156 1540v164h141v-164h-141zM471 1540v164h139v-164h-139z" />
<glyph unicode="&#x192;" d="M-2 -150q10 41 19.5 64t21.5 61q27 -12 50.5 -16t43.5 -4q68 0 95.5 64.5t41.5 193.5l62 500h-142v141h160l25 186q8 70 24.5 139.5t49 123t85 87t132.5 33.5q35 0 68.5 -6t58.5 -18q-8 -41 -15.5 -72t-15.5 -72q-23 10 -52.5 15.5t-52.5 5.5q-72 0 -101.5 -63.5 t-39.5 -161.5l-27 -197h168v-141h-184l-59 -498q-10 -98 -27.5 -172t-48.5 -125t-77 -76.5t-111 -25.5q-35 0 -76 9t-76 25z" />
<glyph unicode="&#x2c6;" horiz-adv-x="741" d="M61 1188l267 285h96l252 -281l-70 -62l-237 193l-238 -193z" />
<glyph unicode="&#x2c7;" horiz-adv-x="739" d="M66 1417l69 58l238 -193l237 193l70 -62l-252 -280h-96z" />
<glyph unicode="&#x2d8;" horiz-adv-x="739" d="M96 1413h133q2 -20 12.5 -42.5t28 -42t42 -32t55.5 -12.5q33 0 58.5 12.5t43.5 32t27.5 42t9.5 42.5h129q-4 -39 -20.5 -83t-49.5 -81t-82 -61.5t-116 -24.5q-76 0 -127.5 24.5t-83 61.5t-46 81t-14.5 83z" />
<glyph unicode="&#x2d9;" horiz-adv-x="739" d="M322 1233v164h139v-164h-139z" />
<glyph unicode="&#x2da;" horiz-adv-x="739" d="M207 1294q0 39 14.5 73t40 58.5t59 39t72.5 14.5q78 0 131.5 -53.5t53.5 -131.5t-53.5 -131t-131.5 -53q-39 0 -72.5 14.5t-59 39t-40 58t-14.5 72.5zM295 1292q0 -41 28.5 -69.5t69.5 -28.5t68.5 28.5t27.5 69.5t-27.5 69t-68.5 28t-69.5 -28t-28.5 -69z" />
<glyph unicode="&#x2db;" horiz-adv-x="808" d="M561 -188q0 41 15.5 87t54.5 105h100l2 -4q-29 -47 -44 -85t-15 -73q0 -53 23.5 -71.5t62.5 -18.5q23 0 47 6t55 23l35 -98q-35 -23 -79 -37.5t-85 -14.5q-76 0 -124 47.5t-48 133.5z" />
<glyph unicode="&#x2dc;" horiz-adv-x="741" d="M74 1237q12 27 31.5 53.5t42 49t49 37t55.5 14.5q31 0 57.5 -12.5t54 -27t56.5 -26.5t59 -12q29 0 52.5 19.5t54.5 60.5l80 -56q-39 -72 -88.5 -112.5t-94.5 -40.5q-31 0 -60.5 12t-57 25.5t-52 26t-49.5 12.5q-57 0 -108 -74z" />
<glyph unicode="&#x2dd;" horiz-adv-x="739" d="M193 1174l139 344l145 -52l-196 -327zM401 1174l140 344l145 -52l-197 -327z" />
<glyph unicode="&#x3a9;" horiz-adv-x="847" d="M82 0v156h106q-47 35 -69.5 93t-22.5 128v661q0 76 13.5 147.5t49.5 128t99.5 90.5t165.5 34q106 0 170.5 -30t99.5 -83t46.5 -125t11.5 -158v-665q0 -70 -22.5 -128.5t-70.5 -92.5h107v-156h-283v186q47 16 77 57.5t30 106.5v719q0 37 -5 76t-21.5 70.5t-50.5 53 t-89 21.5q-61 0 -94 -29.5t-49.5 -70.5t-19.5 -87t-3 -77v-676q0 -66 29.5 -106.5t77.5 -57.5v-186h-283z" />
<glyph unicode="&#x3c0;" horiz-adv-x="792" d="M98 0v1012h598v-1012h-161v868h-275v-868h-162z" />
<glyph unicode="&#x401;" horiz-adv-x="749" d="M109 0v1425h610v-149h-449v-477h389v-150h-389v-502h449v-147h-610zM197 1540v164h141v-164h-141zM512 1540v164h139v-164h-139z" />
<glyph unicode="&#x402;" horiz-adv-x="1005" d="M25 1278v147h733v-147h-348v-393h4q57 45 119.5 60.5t105.5 15.5q86 0 137 -28t79 -70t37 -90t9 -91v-367q0 -180 -68.5 -279t-230.5 -99h-33v143q100 0 134 65.5t34 167.5v316q0 33 -4 63.5t-19.5 55t-44 40t-77.5 15.5q-35 0 -86 -19.5t-96 -66.5v-717h-164v1278h-221z " />
<glyph unicode="&#x403;" horiz-adv-x="733" d="M109 0v1425h577v-151h-416v-1274h-161zM258 1542l291 232l100 -117l-332 -189z" />
<glyph unicode="&#x404;" horiz-adv-x="770" d="M96 330v704q0 76 13.5 148.5t48.5 129t98 91.5t162 35q154 0 225.5 -73t85.5 -196l-160 -39q-2 74 -39.5 116t-113.5 42q-49 0 -80 -22.5t-48.5 -56t-23.5 -74.5t-6 -78v-248h330v-158h-330v-313q0 -31 6 -66.5t23.5 -65.5t47.5 -50.5t79 -20.5q72 0 111.5 40t43.5 126 l166 -33q-14 -135 -92 -208.5t-225 -73.5q-162 0 -242 90t-80 254z" />
<glyph unicode="&#x405;" horiz-adv-x="806" d="M68 311l161 33q0 -41 8.5 -77t28 -64.5t53 -45t82.5 -16.5q61 0 97.5 19.5t53.5 53.5t21.5 79t4.5 94q0 63 -6.5 103t-27 70t-58 52.5t-101.5 49.5q-100 43 -160.5 87t-93.5 92t-43 102t-10 120q0 82 20.5 150.5t62.5 118.5t105.5 78t147.5 28q92 0 154.5 -29t100.5 -75 t53 -101t15 -109l-159 -41q0 96 -39 148.5t-133 52.5q-53 0 -85 -20.5t-50.5 -52t-24.5 -70.5t-6 -76q0 -45 5 -79t27.5 -63.5t66.5 -58t124 -59.5q92 -37 146.5 -77t83 -89t36.5 -110.5t8 -139.5q0 -92 -17.5 -165.5t-57 -127t-103 -82t-158.5 -28.5q-86 0 -149.5 24.5 t-104.5 68.5t-60 103.5t-19 128.5z" />
<glyph unicode="&#x406;" horiz-adv-x="393" d="M115 0v1425h164v-1425h-164z" />
<glyph unicode="&#x407;" horiz-adv-x="393" d="M-33 1573v164h142v-164h-142zM115 0v1425h164v-1425h-164zM283 1573v164h139v-164h-139z" />
<glyph unicode="&#x408;" horiz-adv-x="704" d="M-29 121l119 96q23 -33 65 -58.5t85 -25.5q90 0 129 58.5t39 150.5v1083h161v-1060q0 -186 -80.5 -282.5t-246.5 -96.5q-88 0 -158 32.5t-113 102.5z" />
<glyph unicode="&#x409;" horiz-adv-x="1284" d="M-6 76q45 33 82 66.5t63.5 88t40 139.5t13.5 220v835h548v-573h117q117 0 189.5 -30.5t113.5 -86t55.5 -131.5t14.5 -166q0 -100 -15.5 -181t-56.5 -138.5t-110.5 -88t-178.5 -30.5h-290v1274h-242v-559q0 -197 -14.5 -325t-46 -211t-83 -132t-126.5 -88zM741 152h115 q72 0 115 22.5t65.5 60t29.5 89t7 108.5q0 55 -6 103.5t-29.5 85t-67.5 58t-118 21.5h-111v-548z" />
<glyph unicode="&#x40a;" horiz-adv-x="1296" d="M109 0v1425h161v-604h322v604h162v-604h116q117 0 190 -27.5t113.5 -78.5t55 -124t14.5 -163q0 -100 -15.5 -179t-56.5 -134.5t-110.5 -85t-177.5 -29.5h-291v670h-322v-670h-161zM754 152h114q72 0 115 20.5t65.5 57t29.5 86t7 106.5q0 55 -6 100t-29.5 78t-67.5 51.5 t-118 18.5h-110v-518z" />
<glyph unicode="&#x40b;" horiz-adv-x="1005" d="M20 1278v147h734v-147h-344v-393h4q59 45 120.5 60.5t104.5 15.5q262 0 262 -279v-682h-164v631q0 76 -28.5 124t-116.5 48q-35 0 -88 -21.5t-94 -64.5v-717h-164v1278h-226z" />
<glyph unicode="&#x40c;" horiz-adv-x="866" d="M109 0v1425h161v-620h74q31 0 64.5 6t65.5 27.5t59.5 62.5t44.5 113l98 411h147l-94 -417q-23 -104 -68 -175t-106 -94q80 -29 123 -101.5t65 -178.5l103 -459h-162l-92 430q-16 72 -41 116t-57.5 67.5t-68.5 30.5t-73 7h-82v-651h-161zM317 1542l291 232l101 -117 l-332 -189z" />
<glyph unicode="&#x40e;" horiz-adv-x="743" d="M6 1423h160l215 -796l8 2l189 796h155l-287 -1095q-31 -121 -65.5 -189.5t-71.5 -102.5t-75.5 -43t-79.5 -11h-78v127h74q43 0 80.5 44t62.5 138l22 86zM119 1700h133q2 -20 12 -43t27.5 -42.5t42 -31.5t55.5 -12q33 0 58.5 12t44 31.5t27.5 42t9 43.5h129 q-4 -39 -20 -83t-49 -81t-82 -61.5t-117 -24.5q-76 0 -127 24.5t-83 61.5t-46 81t-14 83z" />
<glyph unicode="&#x40f;" horiz-adv-x="868" d="M109 0v1425h161v-1271h328v1271h162v-1425h-242v-299h-151v299h-258z" />
<glyph unicode="&#x410;" horiz-adv-x="808" d="M27 0l303 1425h151l307 -1425h-159l-66 317h-317l-64 -317h-155zM272 469h263l-70 338l-57 328h-9l-59 -332z" />
<glyph unicode="&#x411;" horiz-adv-x="808" d="M104 0v1425h576v-151h-414v-422h117q117 0 189.5 -30.5t113.5 -86t55.5 -131.5t14.5 -166q0 -100 -15.5 -181t-56.5 -138.5t-110.5 -88t-178.5 -30.5h-291zM266 154h115q72 0 115 21.5t65.5 59t29.5 89t7 108.5q0 55 -6 103.5t-29.5 85t-67.5 58t-118 21.5h-111v-546z " />
<glyph unicode="&#x412;" horiz-adv-x="847" d="M109 0v1425h301q184 0 259.5 -98t75.5 -278q0 -113 -32.5 -179.5t-116.5 -113.5v-8q94 -29 128 -116t34 -212q0 -221 -91.5 -320.5t-283.5 -99.5h-274zM270 145h127q68 0 108 24t61.5 63.5t28.5 92t7 111.5q0 117 -44 180.5t-169 63.5h-119v-535zM270 821h109 q113 0 162 59.5t49 170.5t-48 169t-161 58h-111v-457z" />
<glyph unicode="&#x413;" horiz-adv-x="733" d="M109 0v1425h577v-151h-416v-1274h-161z" />
<glyph unicode="&#x414;" horiz-adv-x="919" d="M12 131l62 10q27 16 47 46t35.5 79t23.5 124t13 179l24 856h604v-1286h72v-411h-143v272h-594v-272h-144v403zM254 139h405v1145h-299l-22 -725q-4 -154 -22.5 -254t-61.5 -166z" />
<glyph unicode="&#x415;" horiz-adv-x="749" d="M109 0v1425h610v-149h-449v-477h389v-150h-389v-502h449v-147h-610z" />
<glyph unicode="&#x416;" horiz-adv-x="1370" d="M41 0l102 459q23 106 66 179t123 101q-61 23 -106.5 93.5t-67.5 175.5l-95 417h148l98 -411q16 -72 44 -113t59.5 -62.5t65.5 -27.5t65 -6h61v620h162v-620h61q31 0 65 6t65.5 27.5t59 62.5t44.5 113l98 411h148l-95 -417q-23 -104 -67.5 -175t-106.5 -94 q80 -29 123 -101.5t66 -178.5l102 -459h-162l-92 430q-16 72 -40.5 116t-57.5 67.5t-69 30.5t-72 7h-70v-651h-162v651h-69q-37 0 -73 -7t-69 -30.5t-58.5 -67.5t-39.5 -116l-92 -430h-162z" />
<glyph unicode="&#x417;" d="M27 309l157 31q0 -117 41 -161t121 -44q33 0 62.5 12.5t51 44t35 85t13.5 135.5q0 51 -7 98t-25.5 81t-48.5 54.5t-75 20.5h-92v141h96q43 0 73 19.5t48.5 54t26.5 82t8 100.5q0 68 -13.5 112t-37 69.5t-54 35.5t-65.5 10q-86 0 -122 -60.5t-36 -146.5l-157 35 q6 154 94 237t223 83q76 0 136.5 -17.5t103.5 -59.5t66.5 -112.5t23.5 -179.5q0 -37 -5 -85t-19.5 -95t-38 -86t-62.5 -60v-6q43 -25 68.5 -62.5t38 -81.5t15.5 -92t3 -93q0 -205 -78 -313.5t-252 -108.5q-72 0 -131 19.5t-102 59t-65.5 100t-18.5 144.5z" />
<glyph unicode="&#x418;" horiz-adv-x="878" d="M102 0v1425h156v-1007l8 -2l357 1009h153v-1425h-155v1001h-7l-360 -1001h-152z" />
<glyph unicode="&#x419;" horiz-adv-x="878" d="M102 0v1425h156v-1007l8 -2l357 1009h153v-1425h-155v1001h-7l-360 -1001h-152zM164 1722h133q2 -20 12 -42.5t27.5 -42t42 -32t55.5 -12.5q33 0 58.5 12.5t44 32t27.5 42t9 42.5h129q-4 -39 -20 -83t-49 -80.5t-82 -61t-117 -24.5q-76 0 -127 24.5t-82.5 61t-46 80.5 t-14.5 83z" />
<glyph unicode="&#x41a;" horiz-adv-x="866" d="M109 0v1425h161v-620h74q31 0 64.5 6t65.5 27.5t59.5 62.5t44.5 113l98 411h147l-94 -417q-23 -104 -68 -175t-106 -94q80 -29 123 -101.5t65 -178.5l103 -459h-162l-92 430q-16 72 -41 116t-57.5 67.5t-68.5 30.5t-73 7h-82v-651h-161z" />
<glyph unicode="&#x41b;" horiz-adv-x="890" d="M-10 76q45 33 82 66.5t63.5 88t39.5 139.5t13 220v835h594v-1425h-161v1274h-287v-559q0 -197 -14.5 -325t-46 -211t-83 -132t-127.5 -88z" />
<glyph unicode="&#x41c;" horiz-adv-x="1155" d="M109 0v1425h163l170 -444l131 -348h7l135 358l166 434h166v-1425h-162v987h-11l-112 -295l-148 -346h-75l-148 346l-112 295h-9v-987h-161z" />
<glyph unicode="&#x41d;" horiz-adv-x="874" d="M109 0v1425h161v-626h332v626h162v-1425h-162v657h-332v-657h-161z" />
<glyph unicode="&#x41e;" horiz-adv-x="847" d="M96 336v702q0 76 13.5 147.5t49.5 128t99.5 90.5t165.5 34q106 0 170.5 -30t99.5 -83t46.5 -125t11.5 -158v-659q0 -190 -75 -293.5t-255 -103.5q-176 0 -251 96t-75 254zM258 334q0 -31 6 -66t24.5 -65.5t50.5 -50t83 -19.5t84 20.5t51 52.5t25.5 72.5t7.5 83.5v707 q0 37 -5 76t-21.5 70.5t-50.5 53t-89 21.5q-61 0 -94 -29.5t-49.5 -70.5t-19.5 -87t-3 -77v-692z" />
<glyph unicode="&#x41f;" horiz-adv-x="847" d="M109 0v1425h630v-1425h-161v1274h-308v-1274h-161z" />
<glyph unicode="&#x420;" horiz-adv-x="808" d="M109 0v1425h290q109 0 178.5 -28.5t110.5 -82.5t56.5 -133t15.5 -180q0 -90 -14.5 -167.5t-55.5 -136t-113.5 -91.5t-189.5 -33h-117v-573h-161zM270 725h111q74 0 118 22.5t67.5 59.5t29.5 86t6 104q0 57 -7 108.5t-29.5 89.5t-65.5 59.5t-115 21.5h-115v-551z" />
<glyph unicode="&#x421;" horiz-adv-x="786" d="M96 330v704q0 76 13.5 148.5t48.5 129t98.5 91.5t161.5 35q166 0 240.5 -90.5t74.5 -235.5l-162 -29q2 94 -33.5 149.5t-121.5 55.5q-49 0 -80 -22.5t-48.5 -56t-23.5 -74.5t-6 -78v-719q0 -31 6 -66.5t23.5 -65.5t47.5 -50.5t79 -20.5q80 0 117.5 49t39.5 156l166 -29 q-4 -154 -83 -239.5t-236 -85.5q-162 0 -242 90t-80 254z" />
<glyph unicode="&#x422;" horiz-adv-x="667" d="M10 1278v147h647v-147h-241v-1278h-164v1278h-242z" />
<glyph unicode="&#x423;" horiz-adv-x="743" d="M6 1423h160l215 -796l8 2l189 796h155l-287 -1095q-31 -121 -65.5 -189.5t-71.5 -102.5t-75.5 -43t-79.5 -11h-78v127h74q43 0 80.5 44t62.5 138l22 86z" />
<glyph unicode="&#x424;" horiz-adv-x="1011" d="M90 442v568q0 84 30 146.5t77 103t108.5 62t122.5 26.5v77h164l2 -77q59 -4 119.5 -26t108.5 -62.5t79 -103t31 -146.5v-568q0 -84 -31 -145t-80 -102t-109.5 -62.5t-119.5 -26.5v-106h-162v106q-63 2 -123.5 25t-108.5 64t-78 102t-30 145zM246 442q0 -86 43 -136 t141 -58v956q-80 -8 -132 -58t-52 -136v-568zM592 248q76 4 130 56t54 138v568q0 86 -55 138t-129 56v-956z" />
<glyph unicode="&#x425;" horiz-adv-x="772" d="M18 -2l285 750l-262 677h170l174 -501l176 501h170l-268 -677l291 -750h-170l-199 565l-197 -565h-170z" />
<glyph unicode="&#x426;" horiz-adv-x="868" d="M109 0v1425h161v-1271h322v1271h162v-1271h73v-422h-143v268h-575z" />
<glyph unicode="&#x427;" horiz-adv-x="843" d="M82 899v526h158v-522q0 -111 45 -152.5t139 -41.5q29 0 68.5 6t78.5 20v690h162v-1425h-162v612q-41 -16 -90 -22t-94 -6q-63 0 -118.5 15t-97.5 52t-65.5 97.5t-23.5 150.5z" />
<glyph unicode="&#x428;" horiz-adv-x="1261" d="M109 0v1425h161v-1269h279v1269h162v-1269h280v1269h162v-1425h-1044z" />
<glyph unicode="&#x429;" horiz-adv-x="1280" d="M109 0v1425h161v-1271h279v1271h162v-1271h280v1271h162v-1271h76v-422h-144v268h-976z" />
<glyph unicode="&#x42a;" horiz-adv-x="1021" d="M35 1274v151h444v-573h117q117 0 189.5 -30.5t113.5 -86t55.5 -131.5t14.5 -166q0 -100 -15.5 -181t-56.5 -138.5t-110.5 -88t-178.5 -30.5h-291v1274h-282zM479 154h115q72 0 115 21.5t65.5 59t29.5 89t7 108.5q0 55 -6 103.5t-29.5 85t-67.5 58t-118 21.5h-111v-546z " />
<glyph unicode="&#x42b;" horiz-adv-x="1146" d="M104 0v1425h162v-573h117q117 0 189.5 -30.5t113.5 -86t55.5 -131.5t14.5 -166q0 -100 -15.5 -181t-56.5 -138.5t-110.5 -88t-178.5 -30.5h-291zM266 154h115q72 0 115 21.5t65.5 59t29.5 89t7 108.5q0 55 -6 103.5t-29.5 85t-67.5 58t-118 21.5h-111v-546zM868 0v1425 h164v-1425h-164z" />
<glyph unicode="&#x42c;" horiz-adv-x="808" d="M104 0v1425h162v-573h117q117 0 189.5 -30.5t113.5 -86t55.5 -131.5t14.5 -166q0 -100 -15.5 -181t-56.5 -138.5t-110.5 -88t-178.5 -30.5h-291zM266 154h115q72 0 115 21.5t65.5 59t29.5 89t7 108.5q0 55 -6 103.5t-29.5 85t-67.5 58t-118 21.5h-111v-546z" />
<glyph unicode="&#x42d;" horiz-adv-x="792" d="M45 1145q14 135 93 214t233 79q102 0 164.5 -34t96.5 -89t44 -123t10 -135v-727q0 -164 -80 -254t-241 -90q-147 0 -225.5 73.5t-92.5 208.5l166 33q8 -170 156 -170q49 0 78.5 20.5t47 52.5t23.5 67.5t6 66.5v313h-329v158h329v266q0 96 -35.5 154.5t-128.5 58.5 q-76 0 -112.5 -51t-42.5 -129z" />
<glyph unicode="&#x42e;" horiz-adv-x="1163" d="M109 0v1425h161v-626h164v239q0 76 12.5 147.5t47 128t96 90.5t158.5 34q100 0 163.5 -30t97 -83t46 -125t12.5 -158v-659q0 -188 -73.5 -292.5t-245.5 -104.5q-84 0 -143.5 25.5t-97.5 71.5t-55.5 110.5t-17.5 142.5v321h-164v-657h-161zM594 334q0 -31 5 -66 t21.5 -65.5t46 -50t78.5 -19.5t80 20.5t48.5 52.5t24.5 72.5t7 83.5v707q0 37 -4 76t-20.5 70.5t-48 53t-84.5 21.5q-59 0 -90 -29.5t-45.5 -70.5t-16.5 -87t-2 -77v-692z" />
<glyph unicode="&#x42f;" horiz-adv-x="876" d="M72 0l86 444q16 78 44.5 142.5t92.5 103.5q-53 14 -88 45t-55.5 72t-28.5 91t-8 108q0 205 86 312t260 107h313v-1425h-162v637h-86q-27 0 -58.5 -7t-61 -31t-55 -67t-38.5 -116l-75 -416h-166zM279 1006q0 -225 196 -226h137v494h-123q-61 0 -102 -20.5t-64.5 -56.5 t-33.5 -85t-10 -106z" />
<glyph unicode="&#x430;" horiz-adv-x="739" d="M55 283q0 57 12.5 114.5t43 104.5t84 76.5t137.5 29.5h160v135q0 59 -28 94t-106 35q-41 0 -79.5 -24.5t-49.5 -79.5l-153 43q23 100 98.5 157.5t192.5 57.5q137 0 212.5 -62.5t75.5 -218.5v-745h-163v88h-3q-41 -55 -93 -77.5t-117 -22.5q-63 0 -106.5 25.5t-69 67.5 t-37 94t-11.5 108zM213 293q0 -72 30.5 -110t96.5 -38q76 0 114 43t38 119v160h-119q-63 0 -111.5 -38t-48.5 -136z" />
<glyph unicode="&#x431;" horiz-adv-x="741" d="M68 473v203q0 162 13 275.5t42 190.5t75 125t113 81q39 18 71 31.5t64.5 25.5t69.5 26.5t86 36.5l55 -114q-47 -25 -79.5 -39.5t-63.5 -26.5t-66.5 -28.5t-87.5 -45.5q-72 -39 -100.5 -127t-28.5 -190h5q41 53 92 69.5t80 16.5q57 0 98 -13.5t68.5 -36t46 -52t30.5 -62.5 q10 -29 15.5 -74t8.5 -96t4 -104t1 -99q0 -57 -2 -98t-8 -100q-10 -82 -41 -133.5t-75 -80t-95 -38.5t-101 -10q-63 0 -109 16t-79 43t-53.5 62.5t-30.5 72.5q-12 47 -15 131t-3 162zM227 438q0 -68 2 -121t13 -88q14 -45 48 -70.5t87 -25.5q43 0 75.5 26.5t49.5 67.5 q10 23 15 92.5t5 155.5q0 27 -1 63.5t-2 74.5t-4 72t-9 52q-29 101 -129 101q-41 0 -76 -20.5t-53 -67.5q-16 -39 -17.5 -114t-3.5 -198z" />
<glyph unicode="&#x432;" horiz-adv-x="776" d="M94 0v1012h271q166 0 243.5 -73t77.5 -204q0 -72 -23.5 -118t-74.5 -80h2q61 -29 84.5 -89.5t23.5 -140.5q0 -160 -84 -233.5t-258 -73.5h-262zM260 154h115q55 0 88 12t51 33.5t23.5 52t5.5 67.5q0 70 -35 108t-137 38h-111v-311zM260 600h94q92 0 131 34.5t39 102.5 q0 66 -37.5 98.5t-130.5 32.5h-96v-268z" />
<glyph unicode="&#x433;" horiz-adv-x="661" d="M94 0v1012h527v-144h-363v-868h-164z" />
<glyph unicode="&#x434;" horiz-adv-x="870" d="M41 121l55 18q20 18 35.5 42t28 61t19.5 91t11 136l21 543h545v-869h73v-397h-147v254h-492v-254h-149v375zM287 143h307v725h-227l-21 -405q-6 -111 -18.5 -189.5t-40.5 -130.5z" />
<glyph unicode="&#x435;" horiz-adv-x="731" d="M63 496q0 51 1.5 103t5.5 99t10 87t16 67q29 80 95.5 127t181.5 47q152 0 219 -84t67 -231v-250h-434q0 -68 3 -133.5t14 -100.5q29 -92 127 -92q59 0 88.5 40t34.5 112l165 -31q-8 -131 -80.5 -200.5t-220.5 -69.5q-66 0 -112.5 17t-79.5 45t-52.5 62.5t-27.5 69.5 q-6 25 -10 62t-6 81t-3.5 89t-1.5 84zM227 592h269v86q0 39 -5.5 74.5t-19.5 62.5t-39.5 42t-66.5 15q-37 0 -68 -17t-49 -64q-10 -29 -14.5 -78t-6.5 -121z" />
<glyph unicode="&#x436;" horiz-adv-x="1185" d="M31 0l88 328q20 76 52 129t99 69q-53 16 -86.5 66.5t-54.5 124.5l-80 293h156l78 -291q12 -49 33.5 -79t47 -45t53 -19.5t56.5 -4.5h39v439h162v-439h39q27 0 55.5 4.5t54 19.5t47 45t33.5 79l78 291h156l-80 -293q-20 -74 -54 -124t-88 -67q68 -16 100 -69.5t52 -128.5 l88 -328h-160l-69 279q-12 49 -30.5 80.5t-43.5 48t-54.5 22.5t-62.5 6h-61v-436h-162v436h-61q-33 0 -63 -6t-54.5 -22.5t-43 -48t-30.5 -80.5l-70 -279h-159z" />
<glyph unicode="&#x437;" horiz-adv-x="702" d="M18 250l158 24q4 -74 38 -106.5t99 -32.5q53 0 97.5 34t44.5 124q0 70 -24.5 115t-88.5 45h-90v141h94q59 0 84 37t25 106q0 59 -32 98t-101 39q-127 0 -136 -137l-153 33q10 123 88 187.5t201 64.5q141 0 220 -67.5t79 -209.5q0 -35 -5.5 -69.5t-17.5 -63t-32.5 -51 t-51.5 -35.5v-4q70 -23 88.5 -87t18.5 -144q0 -86 -26 -143.5t-69 -92.5t-99 -50t-118 -15q-123 0 -200.5 61.5t-90.5 198.5z" />
<glyph unicode="&#x438;" horiz-adv-x="806" d="M92 0v1012h158v-662h4l297 662h164v-1012h-164v666h-4l-299 -666h-156z" />
<glyph unicode="&#x439;" horiz-adv-x="806" d="M92 0v1012h158v-662h4l297 662h164v-1012h-164v666h-4l-299 -666h-156zM123 1413h133q2 -20 12.5 -42.5t27.5 -42t41.5 -32t55.5 -12.5q33 0 58.5 12.5t44 32t27.5 42t9 42.5h130q-4 -39 -20.5 -83t-49.5 -81t-82 -61.5t-117 -24.5q-76 0 -127 24.5t-82.5 61.5t-46 81 t-14.5 83z" />
<glyph unicode="&#x43a;" horiz-adv-x="768" d="M72 0v1010h161v-439h70q27 0 55.5 4.5t54 19.5t47 45t34.5 79l77 291h156l-80 -293q-20 -74 -54 -124t-87 -67q68 -16 99.5 -69.5t51.5 -128.5l88 -328h-159l-70 279q-12 49 -30.5 80.5t-43 48t-54.5 22.5t-62 6h-93v-436h-161z" />
<glyph unicode="&#x43b;" horiz-adv-x="763" d="M10 86q43 29 71 55.5t44 60.5t22.5 83t6.5 123v604h538v-1012h-164v868h-227v-467q0 -96 -11 -164.5t-37 -119.5t-68 -87t-103 -65z" />
<glyph unicode="&#x43c;" horiz-adv-x="1028" d="M92 0v1012h160l149 -310l111 -219h4l107 219l153 310h160v-1012h-166v680h-4l-98 -211l-119 -231h-74l-119 227l-94 197h-4v-662h-166z" />
<glyph unicode="&#x43d;" horiz-adv-x="786" d="M94 0v1012h166v-426h266v426h166v-1012h-166v449h-266v-449h-166z" />
<glyph unicode="&#x43e;" horiz-adv-x="741" d="M68 496q0 51 2 105t6 103.5t10 89.5t16 64q29 78 96.5 123t182.5 45q86 0 140 -22.5t87 -62.5t47.5 -94t18.5 -118q4 -59 6 -126.5t2 -121.5q0 -117 -12 -233q-10 -82 -41 -133.5t-75 -80t-95 -38.5t-101 -10q-63 0 -109 16t-79 43t-53.5 62.5t-30.5 72.5q-6 25 -10 62 t-5 81t-2 89t-1 84zM227 461q0 -68 2 -132.5t13 -99.5q29 -94 135 -94q43 0 75.5 25.5t49.5 66.5q4 10 8 38t7 66t4 81t1 86t-1 85t-2 80.5t-4 69.5t-9 49q-29 97 -129 97q-41 0 -75 -18.5t-52 -65.5q-12 -29 -16.5 -120t-6.5 -214z" />
<glyph unicode="&#x43f;" horiz-adv-x="792" d="M98 0v1012h598v-1012h-161v868h-275v-868h-162z" />
<glyph unicode="&#x440;" horiz-adv-x="745" d="M68 -393v1407h161v-78l4 -2q33 45 70 68.5t117 23.5q27 0 65.5 -7t74.5 -32.5t64.5 -75t39.5 -133.5q6 -61 7 -128.5t1 -127.5q0 -111 -5 -208t-31 -168.5t-79 -113.5t-149 -42q-59 0 -102.5 21.5t-72.5 62.5h-4v-467h-161zM227 307q0 -72 33 -114.5t105 -42.5 q45 0 72.5 17t43 60t21.5 114t6 175q0 94 -3 160.5t-17.5 109.5t-43 62.5t-79.5 19.5q-68 0 -103 -45t-35 -114v-402z" />
<glyph unicode="&#x441;" horiz-adv-x="684" d="M66 496q0 51 2 105t5 103.5t9 89.5t16 64q29 78 94.5 123t180.5 45q152 0 216 -81t64 -218l-168 -22q0 92 -31.5 133t-86.5 41q-41 0 -71 -18.5t-48 -65.5q-12 -31 -16.5 -121t-6.5 -213q0 -68 2 -132.5t13 -99.5q14 -45 43.5 -70.5t83.5 -25.5q63 0 90.5 45t27.5 123 l166 -29q-4 -139 -74.5 -212.5t-222.5 -73.5q-63 0 -109 16t-79 43t-52.5 62.5t-29.5 72.5q-6 25 -10 62t-5 81t-2 89t-1 84z" />
<glyph unicode="&#x442;" horiz-adv-x="589" d="M2 868v144h588v-144h-215v-868h-160v868h-213z" />
<glyph unicode="&#x443;" horiz-adv-x="688" d="M10 1012h172l86 -387l82 -351h6l76 355l84 383h166l-291 -1182q-25 -102 -78 -164.5t-161 -62.5h-62v139h41q57 0 83 38t48 140l17 72z" />
<glyph unicode="&#x444;" horiz-adv-x="948" d="M68 496q0 102 4 191t30 157q31 82 100.5 129t192.5 53v379h160v-379q135 -6 207 -59.5t100 -147.5q6 -25 11.5 -61.5t7.5 -79.5t3 -90t1 -92q0 -119 -9.5 -220.5t-60.5 -171.5q-68 -92 -260 -118v-381h-158v381q-115 10 -181 46t-99 97q-37 68 -43 162t-6 205zM227 461 q0 -35 1 -72t3 -70.5t6.5 -61.5t10.5 -42q33 -68 145 -80l2 735q-55 -6 -93 -27.5t-54 -64.5q-6 -18 -10.5 -51t-6.5 -76t-3 -92t-1 -98zM555 135q106 8 145 82q20 41 23.5 106.5t3.5 137.5q0 49 -1 98t-2 91t-4 74t-9 48q-16 47 -54.5 69.5t-101.5 28.5v-735z" />
<glyph unicode="&#x445;" horiz-adv-x="679" d="M12 0l248 516l-240 496h183l141 -334l133 334h189l-234 -494l238 -518h-181l-145 350l-154 -350h-178z" />
<glyph unicode="&#x446;" horiz-adv-x="788" d="M94 0v1012h166v-858h266v858h164v-858h68v-408h-150v254h-514z" />
<glyph unicode="&#x447;" horiz-adv-x="727" d="M53 618v394h164v-350q0 -139 123 -140q35 0 76 13.5t78 35.5v441h159v-1012h-161v432q-109 -57 -209 -57q-109 0 -169.5 57t-60.5 186z" />
<glyph unicode="&#x448;" horiz-adv-x="1150" d="M98 0v1012h160v-858h236v858h161v-858h240v858h158v-1012h-955z" />
<glyph unicode="&#x449;" horiz-adv-x="1185" d="M98 0v1012h158v-858h236v858h161v-858h238v858h160v-858h69v-375h-145v221h-877z" />
<glyph unicode="&#x44a;" horiz-adv-x="919" d="M33 868v144h411v-383h88q106 0 172 -25.5t103 -67.5t50 -97.5t13 -116.5q0 -74 -14 -133.5t-51 -101.5t-100.5 -64.5t-161.5 -22.5h-267v868h-243zM444 154h88q57 0 92 15t53.5 38.5t25 52.5t6.5 57q0 31 -6.5 61t-26 51.5t-55 34.5t-93.5 13h-84v-323z" />
<glyph unicode="&#x44b;" horiz-adv-x="1040" d="M90 0v1012h168v-383h88q106 0 172 -25.5t102.5 -67.5t50 -97.5t13.5 -116.5q0 -74 -14.5 -133.5t-51 -101.5t-100 -64.5t-162.5 -22.5h-266zM258 154h88q57 0 92 15t53.5 38.5t24.5 52.5t6 57q0 31 -6 61t-25.5 51.5t-55.5 34.5t-93 13h-84v-323zM770 0v1012h168v-1012 h-168z" />
<glyph unicode="&#x44c;" horiz-adv-x="727" d="M90 0v1012h168v-383h88q106 0 172 -25.5t102.5 -67.5t50 -97.5t13.5 -116.5q0 -74 -14.5 -133.5t-51 -101.5t-100 -64.5t-162.5 -22.5h-266zM258 154h88q57 0 92 15t53.5 38.5t24.5 52.5t6 57q0 31 -6 61t-25.5 51.5t-55.5 34.5t-93 13h-84v-323z" />
<glyph unicode="&#x44d;" horiz-adv-x="706" d="M47 770q6 113 78 184.5t217 71.5q115 0 173 -45t87 -123q8 -25 15.5 -64.5t10.5 -89t5 -103.5t2 -105q0 -39 -1 -84t-2 -89t-5 -81t-11 -62q-10 -37 -29.5 -72.5t-52 -62.5t-78.5 -43t-110 -16q-147 0 -219 68.5t-78 187.5l166 20q4 -57 31.5 -93t87.5 -36 q53 0 82.5 25.5t44.5 70.5q10 33 12 91.5t2 119.5h-289v146h287q-2 76 -6 128t-14 81q-18 47 -48 65.5t-71 18.5q-53 0 -85 -35t-34 -101z" />
<glyph unicode="&#x44e;" horiz-adv-x="1005" d="M72 0v1012h164v-426h124q4 82 10.5 154.5t20.5 111.5q27 78 92 123t174 45q82 0 133.5 -22.5t82 -62.5t45 -94.5t18.5 -115.5q4 -59 6 -126t2 -120q0 -57 -2 -115.5t-8 -117.5q-8 -80 -39 -131.5t-73 -80t-91 -38.5t-94 -10q-59 0 -104.5 16t-76 43t-50 62.5t-27.5 72.5 q-10 41 -14.5 118t-4.5 151h-124v-449h-164zM516 459q0 -68 1 -131.5t11 -98.5q27 -94 125 -94q41 0 73 25.5t46 66.5q4 10 7 38t4 65t2 80t1 86v84t-2 80.5t-4 67.5t-8 48q-25 96 -119 96q-37 0 -68.5 -18t-47.5 -66q-12 -29 -15.5 -118.5t-5.5 -210.5z" />
<glyph unicode="&#x44f;" horiz-adv-x="776" d="M61 0l86 317q12 47 36 90.5t63 65.5q-86 31 -120 95.5t-34 142.5q0 141 78 221t238 80h286v-1012h-164v426h-88q-59 0 -93 -33t-56 -125l-68 -268h-164zM258 702q0 -66 42 -102.5t120 -36.5h110v305h-96q-96 0 -136 -46t-40 -120z" />
<glyph unicode="&#x451;" horiz-adv-x="731" d="M63 496q0 51 1.5 103t5.5 99t10 87t16 67q29 80 95.5 127t181.5 47q152 0 219 -84t67 -231v-250h-434q0 -68 3 -133.5t14 -100.5q29 -92 127 -92q59 0 88.5 40t34.5 112l165 -31q-8 -131 -80.5 -200.5t-220.5 -69.5q-66 0 -112.5 17t-79.5 45t-52.5 62.5t-27.5 69.5 q-6 25 -10 62t-6 81t-3.5 89t-1.5 84zM143 1221v163h142v-163h-142zM227 592h269v86q0 39 -5.5 74.5t-19.5 62.5t-39.5 42t-66.5 15q-37 0 -68 -17t-49 -64q-10 -29 -14.5 -78t-6.5 -121zM459 1221v163h139v-163h-139z" />
<glyph unicode="&#x452;" horiz-adv-x="790" d="M0 1178v125h96v184h162v-184h281v-125h-281v-287h6q27 47 80 82t125 35q88 0 139 -41t74 -113q8 -25 13 -69t7.5 -96t3.5 -108.5t1 -105.5q0 -39 -1 -89t-4.5 -100t-7.5 -92t-10 -67q-10 -37 -30.5 -72t-53.5 -61.5t-79 -43t-109 -16.5h-29v146h16q53 0 83 25.5t44 70.5 q6 18 8.5 49t4.5 68t2 75v72q0 111 -3 196t-14 128q-10 35 -35.5 57.5t-80.5 22.5q-82 0 -117 -53.5t-35 -126.5v-664h-160v1178h-96z" />
<glyph unicode="&#x453;" horiz-adv-x="661" d="M94 0v1012h527v-144h-363v-868h-164zM225 1174l140 344l145 -52l-197 -327z" />
<glyph unicode="&#x454;" horiz-adv-x="727" d="M90 496q0 51 2 105t5 103.5t9.5 89.5t16.5 64q29 78 96.5 123t181.5 45q74 0 125.5 -19.5t84 -53t49 -81t18.5 -104.5l-168 -16q-4 61 -36 94t-83 33q-41 0 -70.5 -18.5t-48.5 -65.5q-12 -29 -16 -83.5t-6 -131.5h285v-140h-285q0 -63 2 -120.5t12 -90.5q14 -45 44 -70.5 t83 -25.5q59 0 87 36t32 93l166 -20q-6 -119 -78 -187.5t-219 -68.5q-63 0 -109.5 16t-79 43t-52 62.5t-29.5 72.5q-6 25 -10.5 62t-5.5 81t-2 89t-1 84z" />
<glyph unicode="&#x455;" horiz-adv-x="694" d="M61 260l166 27q-2 -70 29 -111t90 -41q76 0 104.5 35t28.5 111q0 35 -6 60.5t-22.5 45t-45 35.5t-75.5 35q-78 29 -128 61.5t-78 69.5t-38 78t-10 86q0 121 70.5 197.5t211.5 76.5q152 0 216.5 -74.5t64.5 -203.5l-168 -23q4 80 -28.5 116t-86.5 36q-37 0 -61.5 -11.5 t-37.5 -30t-18.5 -41t-5.5 -42.5q0 -25 6.5 -46.5t25 -41t51 -38t87.5 -36.5q76 -27 122 -58.5t71 -69.5t32 -82t7 -97q0 -135 -66.5 -216t-214.5 -81q-147 0 -217.5 70.5t-75.5 203.5z" />
<glyph unicode="&#x456;" horiz-adv-x="348" d="M90 0v1012h164v-1012h-164zM90 1262v163h164v-163h-164z" />
<glyph unicode="&#x457;" horiz-adv-x="348" d="M-57 1206v164h141v-164h-141zM90 0v1012h164v-1012h-164zM258 1206v164h139v-164h-139z" />
<glyph unicode="&#x458;" horiz-adv-x="360" d="M-37 -254h29q70 0 88 30.5t18 114.5v1121h164v-1153q0 -53 -11 -101.5t-38 -85.5t-73 -58.5t-115 -21.5h-62v154zM98 1264v163h164v-163h-164z" />
<glyph unicode="&#x459;" horiz-adv-x="1132" d="M10 86q43 29 71 55.5t44 60.5t22.5 83t6.5 123v604h501v-383h88q106 0 172 -25.5t103 -67.5t50 -97.5t13 -116.5q0 -74 -14 -133.5t-51 -101.5t-100.5 -64.5t-161.5 -22.5h-267v868h-186v-467q0 -96 -11 -164.5t-37 -119.5t-68 -87t-103 -65zM655 154h88q57 0 92 15 t53.5 38.5t25 52.5t6.5 57q0 31 -6.5 61t-26 51.5t-55 34.5t-93.5 13h-84v-323z" />
<glyph unicode="&#x45a;" horiz-adv-x="1167" d="M100 0v1012h166v-400h250v400h168v-400h88q106 0 172 -23.5t102.5 -63.5t50 -93t13.5 -110q0 -74 -14.5 -133.5t-51 -101.5t-100 -64.5t-162.5 -22.5h-266v457h-250v-457h-166zM684 154h88q57 0 92 15t53.5 38.5t24.5 52.5t6 57q0 29 -6 54.5t-25.5 44t-55.5 30t-93 11.5 h-84v-303z" />
<glyph unicode="&#x45b;" horiz-adv-x="790" d="M2 1178v125h96v184h162v-184h281v-125h-281v-281h6q72 111 207 111q113 0 169 -73t56 -190v-745h-163v702q0 66 -35 104t-103 38q-66 0 -102.5 -39t-36.5 -111v-694h-160v1178h-96z" />
<glyph unicode="&#x45c;" horiz-adv-x="768" d="M72 0v1010h161v-439h70q27 0 55.5 4.5t54 19.5t47 45t34.5 79l77 291h156l-80 -293q-20 -74 -54 -124t-87 -67q68 -16 99.5 -69.5t51.5 -128.5l88 -328h-159l-70 279q-12 49 -30.5 80.5t-43 48t-54.5 22.5t-62 6h-93v-436h-161zM276 1174l140 344l145 -52l-196 -327z" />
<glyph unicode="&#x45e;" horiz-adv-x="688" d="M10 1012h172l86 -387l82 -351h6l76 355l84 383h166l-291 -1182q-25 -102 -78 -164.5t-161 -62.5h-62v139h41q57 0 83 38t48 140l17 72zM86 1413h133q2 -20 12.5 -42.5t27.5 -42t42 -32t55 -12.5q33 0 58.5 12.5t44 32t28 42t9.5 42.5h129q-4 -39 -20.5 -83t-49.5 -81 t-82 -61.5t-117 -24.5q-76 0 -127 24.5t-82.5 61.5t-46 81t-14.5 83z" />
<glyph unicode="&#x45f;" horiz-adv-x="790" d="M98 0v1012h166v-856h266v856h162v-1012h-219v-262h-154v262h-221z" />
<glyph unicode="&#x490;" horiz-adv-x="733" d="M109 0v1425h432l-2 252h147v-403h-416v-1274h-161z" />
<glyph unicode="&#x491;" horiz-adv-x="661" d="M94 0v1012h381v235h146v-379h-363v-868h-164z" />
<glyph unicode="&#x4d9;" horiz-adv-x="731" d="M66 301v250h434q0 68 -3 133.5t-14 99.5q-29 93 -127 93q-59 0 -88.5 -40t-34.5 -112l-165 31q8 131 80.5 200.5t220.5 69.5q66 0 112.5 -17.5t79.5 -45t51.5 -62.5t28.5 -70q6 -25 10 -61.5t6 -80.5t3.5 -89t1.5 -84q0 -51 -1.5 -103.5t-5.5 -99.5t-10 -87t-16 -66 q-29 -80 -95.5 -127t-181.5 -47q-152 0 -219 84t-67 231zM229 334q0 -41 5.5 -76t19.5 -61.5t39.5 -42t66.5 -15.5q37 0 68 17.5t49 64.5q10 29 14.5 78t6.5 121h-269v-86z" />
<glyph unicode="&#x2000;" horiz-adv-x="911" />
<glyph unicode="&#x2001;" horiz-adv-x="1823" />
<glyph unicode="&#x2002;" horiz-adv-x="911" />
<glyph unicode="&#x2003;" horiz-adv-x="1823" />
<glyph unicode="&#x2004;" horiz-adv-x="607" />
<glyph unicode="&#x2005;" horiz-adv-x="455" />
<glyph unicode="&#x2006;" horiz-adv-x="303" />
<glyph unicode="&#x2007;" horiz-adv-x="303" />
<glyph unicode="&#x2008;" horiz-adv-x="227" />
<glyph unicode="&#x2009;" horiz-adv-x="364" />
<glyph unicode="&#x200a;" horiz-adv-x="101" />
<glyph unicode="&#x2010;" horiz-adv-x="708" d="M100 518v137h531v-137h-531z" />
<glyph unicode="&#x2011;" horiz-adv-x="708" d="M100 518v137h531v-137h-531z" />
<glyph unicode="&#x2012;" horiz-adv-x="708" d="M100 518v137h531v-137h-531z" />
<glyph unicode="&#x2013;" horiz-adv-x="1024" d="M41 471v154h942v-154h-942z" />
<glyph unicode="&#x2014;" horiz-adv-x="2048" d="M41 471v154h1966v-154h-1966z" />
<glyph unicode="&#x2018;" horiz-adv-x="462" d="M135 1008v194l94 234h90l-49 -230h43v-198h-178z" />
<glyph unicode="&#x2019;" horiz-adv-x="364" d="M115 1010l49 229h-43v199h178v-195l-94 -233h-90z" />
<glyph unicode="&#x201a;" horiz-adv-x="395" d="M100 -246l50 230h-44v198h179v-194l-95 -234h-90z" />
<glyph unicode="&#x201c;" horiz-adv-x="600" d="M94 1008v194l94 234h91l-50 -230h43v-198h-178zM334 1008v194l94 234h90l-49 -230h43v-198h-178z" />
<glyph unicode="&#x201d;" horiz-adv-x="600" d="M96 1010l49 229h-43v199h179v-195l-95 -233h-90zM336 1010l49 229h-43v199h178v-195l-94 -233h-90z" />
<glyph unicode="&#x201e;" horiz-adv-x="630" d="M96 -242l49 230h-43v198h179v-194l-95 -234h-90zM336 -242l49 230h-43v198h178v-194l-94 -234h-90z" />
<glyph unicode="&#x2020;" horiz-adv-x="733" d="M23 815v143h272v426h143v-426h273v-143h-273v-1139h-143v1139h-272z" />
<glyph unicode="&#x2021;" horiz-adv-x="733" d="M23 182v144h272v489h-272v143h272v426h143v-426h273v-143h-273v-489h273v-144h-273v-506h-143v506h-272z" />
<glyph unicode="&#x2022;" horiz-adv-x="841" d="M168 545q0 51 19.5 98t54 81t81 54.5t99.5 20.5t99 -20.5t81 -54.5t55.5 -81t20.5 -98q0 -53 -20.5 -99.5t-55.5 -80t-81 -54t-99 -20.5t-99.5 20.5t-81 54t-54 80t-19.5 99.5z" />
<glyph unicode="&#x2026;" horiz-adv-x="1243" d="M106 0v186h179v-186h-179zM532 0v186h179v-186h-179zM963 0v186h178v-186h-178z" />
<glyph unicode="&#x202f;" horiz-adv-x="364" />
<glyph unicode="&#x2030;" horiz-adv-x="1771" d="M66 735v522q0 43 16 75t44 53.5t63.5 33t74.5 11.5q78 0 137.5 -44.5t59.5 -128.5v-522q0 -84 -59.5 -128t-137.5 -44q-39 0 -74.5 11.5t-63.5 33t-44 53t-16 74.5zM193 741q0 -29 19 -47t52 -18q31 0 50.5 18.5t19.5 46.5v512q0 27 -19.5 45.5t-50.5 18.5 q-33 0 -52 -18.5t-19 -45.5v-512zM258 -35l643 1497h105l-644 -1497h-104zM788 164v522q0 43 16.5 75t44.5 53.5t63.5 32.5t74.5 11q78 0 137.5 -44t59.5 -128v-522q0 -84 -59.5 -128t-137.5 -44q-39 0 -74.5 11t-63.5 32.5t-44.5 53.5t-16.5 75zM915 170q0 -29 19.5 -47.5 t52.5 -18.5q31 0 50.5 18.5t19.5 47.5v512q0 27 -19.5 45t-50.5 18q-33 0 -52.5 -18t-19.5 -45v-512zM1311 164v522q0 43 16 75t44 53.5t63.5 32.5t74.5 11q78 0 137.5 -44t59.5 -128v-522q0 -84 -59.5 -128t-137.5 -44q-39 0 -74.5 11t-63.5 32.5t-44 53.5t-16 75z M1438 170q0 -29 19.5 -47.5t51.5 -18.5q31 0 50.5 18.5t19.5 47.5v512q0 27 -19.5 45t-50.5 18q-33 0 -52 -18t-19 -45v-512z" />
<glyph unicode="&#x2039;" horiz-adv-x="571" d="M94 475l219 381h160l-215 -381l215 -381h-160z" />
<glyph unicode="&#x203a;" horiz-adv-x="571" d="M92 94l215 381l-215 381h160l219 -381l-219 -381h-160z" />
<glyph unicode="&#x2044;" horiz-adv-x="393" d="M-160 -35l643 1497h105l-643 -1497h-105z" />
<glyph unicode="&#x205f;" horiz-adv-x="455" />
<glyph unicode="&#x20ac;" d="M37 553v100h65v129h-65v97h65v155q0 76 13.5 148.5t48.5 129t98.5 91.5t161.5 35q154 0 232.5 -78t80.5 -207l-162 -27q-8 162 -153 162q-49 0 -80 -22.5t-48.5 -56t-23.5 -74.5t-6 -78v-178h291v-97h-291v-129h291v-100h-291v-215q0 -31 6 -66.5t23.5 -65.5t47.5 -50.5 t79 -20.5q72 0 109.5 40t45.5 126l166 -25q-12 -137 -91 -213.5t-226 -76.5q-162 0 -242 90t-80 254v223h-65z" />
<glyph unicode="&#x2122;" horiz-adv-x="1372" d="M76 1307v118h473v-118h-172v-691h-129v691h-172zM631 614v809h127l192 -487l187 487h125v-809h-129v467h-7l-127 -321h-108l-127 323h-6v-469h-127z" />
<glyph unicode="&#x2202;" horiz-adv-x="651" d="M47 446q0 106 19.5 193.5t54.5 148t82 93t100 32.5q47 0 91 -22.5t89 -87.5q-4 125 -14 225t-39 171t-81 110t-138 39q-12 0 -25.5 -1t-29.5 -4l-2 123q18 2 36.5 3t34.5 1q127 0 203 -55t116 -155.5t52 -237.5t12 -303q0 -369 -85 -554t-216 -185q-111 0 -185.5 118.5 t-74.5 347.5zM164 451q0 -166 45 -241t102 -75q45 0 78 43t53.5 111.5t31.5 153.5t13 167q-49 98 -95 128t-83 30q-35 0 -61.5 -27.5t-45 -72.5t-28.5 -102.5t-10 -114.5z" />
<glyph unicode="&#x2206;" horiz-adv-x="808" d="M27 0l303 1425h151l307 -1425h-761zM211 152h385l-121 610l-65 328h-11l-67 -334z" />
<glyph unicode="&#x220f;" horiz-adv-x="847" d="M109 -170v1595h630v-1595h-161v1454h-308v-1454h-161z" />
<glyph unicode="&#x2211;" horiz-adv-x="634" d="M27 1286v139h563v-151h-400l211 -643l-202 -645h417v-152h-581v139l205 658z" />
<glyph unicode="&#x221a;" horiz-adv-x="702" d="M23 748l192 100l166 -715l209 1499h115l-265 -1798h-106l-195 840l-88 -47z" />
<glyph unicode="&#x221e;" horiz-adv-x="1374" d="M90 573q0 59 20.5 113.5t58.5 94.5t90.5 63.5t115.5 23.5q53 0 99 -19.5t85 -50t72 -68.5t57 -77q33 45 68 84t72.5 68t83.5 46t104 17q123 0 194.5 -81.5t71.5 -213.5q0 -61 -20.5 -113t-57.5 -92t-89 -62.5t-116 -22.5q-49 0 -92 17t-82 47t-72.5 67t-64.5 75 q-35 -43 -69.5 -79.5t-72.5 -65.5t-84 -45t-104 -16q-123 0 -195.5 77.5t-72.5 212.5zM211 573q0 -78 44 -124t116 -46q80 0 137 47.5t100 120.5q-18 31 -41.5 63t-53.5 56.5t-64.5 41t-73.5 16.5q-72 0 -118 -51.5t-46 -123.5zM764 573q29 -35 54.5 -66.5t53 -54t59.5 -36 t73 -13.5q72 0 115.5 48.5t43.5 121.5q0 78 -41.5 126.5t-113.5 48.5q-80 0 -133.5 -49.5t-110.5 -125.5z" />
<glyph unicode="&#x222b;" horiz-adv-x="647" d="M-37 -289l27 119q18 -4 35.5 -6t33.5 -2q49 0 84 15.5t57.5 53t34 103.5t15.5 168q2 84 4 202.5t3 257t5 289t14 297.5q12 197 83 285t192 88q57 0 129 -18l-27 -119q-47 10 -80 10q-49 0 -80.5 -17.5t-50 -57.5t-27.5 -105.5t-14 -159.5q-4 -100 -5 -229t-2 -269.5 t-5 -283t-14 -264.5q-16 -199 -89 -286t-198 -87q-29 0 -59.5 3t-65.5 13z" />
<glyph unicode="&#x2248;" d="M20 406q35 61 86 109t123 48q49 0 89 -14t78 -32.5t74 -33t77 -14.5q39 0 58.5 18.5t56.5 63.5l92 -57q-37 -68 -87.5 -116t-121.5 -48q-39 0 -78 15t-78 32.5t-80 33t-82 15.5q-39 0 -60.5 -17.5t-62.5 -60.5zM20 694q35 61 86 108.5t123 47.5q49 0 90 -14.5t79 -32 t74 -31.5t75 -14t58.5 18.5t56.5 61.5l92 -56q-37 -68 -87.5 -117t-121.5 -49q-39 0 -77 15.5t-78 34t-80 34t-83 15.5q-39 0 -61.5 -17.5t-61.5 -62.5z" />
<glyph unicode="&#x2260;" d="M16 158l158 227h-156v129h244l129 184h-373v129h461l154 220h131l-154 -220h152v-129h-242l-127 -184h369v-129h-459l-158 -227h-129z" />
<glyph unicode="&#x2264;" d="M27 530v129l727 281v-127l-537 -217l537 -225v-131zM29 0v129h723v-129h-723z" />
<glyph unicode="&#x2265;" d="M29 240v131l536 225l-536 217v127l727 -281v-129zM31 0v129h723v-129h-723z" />
<glyph unicode="&#x25ca;" horiz-adv-x="690" d="M35 610l215 611h186l217 -611l-215 -608h-186zM176 606h4l164 -471h6l162 471l-168 475h-6z" />
<glyph unicode="&#x25fc;" horiz-adv-x="1013" d="M0 0v1014h1014v-1014h-1014z" />
</font>
</defs>
</svg>
